# Wavefront OBJ file
# Exported by Misfit Model 3D 1.3.8
# Wed Jul 05 11:56:14 2017

mtllib gamepak.mtl

# 52 Vertices
v -2.835 0.0 -0.5265
v -2.835 2.997 -0.5265
v -2.835 2.997 0.6075
v -2.835 0.0 0.6075
v -2.835 0.0 -0.5265
v -2.835 2.997 0.6075
v -1.863 3.483 -0.5265
v -2.835 2.997 0.6075
v -2.835 2.997 -0.5265
v -1.863 3.483 0.6075
v -0.972 3.807 -0.5265
v -0.972 3.807 0.6075
v 0.0 3.888 -0.5265
v 0.0 3.888 0.6075
v 0.972 3.807 -0.5265
v 0.972 3.807 0.6075
v 1.863 3.483 -0.5265
v 1.863 3.483 0.6075
v 2.835 2.997 -0.5265
v 2.835 2.997 0.6075
v 2.835 0.0 -0.5265
v 2.835 0.0 0.6075
v -2.835 0.0 0.6075
v -2.835 0.0 -0.5265
v -0.972 3.645 0.0405
v -0.243 3.888 0.3645
v 0.0 3.726 0.1215
v -0.162 4.617 0.4455
v -1.458 4.536 0.2835
v -1.053 3.888 0.3645
v -0.729 5.427 0.2025
v -1.296 5.103 -0.2025
v -1.377 4.941 -0.6075
v -0.81 5.427 -0.4455
v -0.243 5.265 -0.4455
v 0.0 4.536 -0.2025
v 1.377 4.941 -0.6075
v 0.243 5.265 -0.4455
v 0.972 3.645 0.0405
v 1.458 4.536 0.2835
v 0.81 5.427 -0.4455
v 1.296 5.103 -0.2025
v 0.729 5.427 0.2025
v 0.162 4.617 0.4455
v 1.053 3.888 0.3645
v 0.243 3.888 0.3645
v -2.835 0.0 -0.5265
v -2.835 2.997 -0.5265
v -2.835 2.997 0.6075
v -2.835 0.0 0.6075
v -2.835 0.0 -0.5265
v -2.835 2.997 0.6075

# 432 Texture Coordinates
vt 0.0 0.0
vt 0.0 0.0
vt 0.0 0.0
vt 0.0 0.0
vt 0.0 0.0
vt 0.0 0.0
vt 0.0 0.0
vt 0.0 0.0
vt 0.0 0.0
vt 0.0 0.0
vt 0.0 0.0
vt 0.0 0.0
vt 0.0 0.0
vt 0.0 0.0
vt 0.0 0.0
vt 0.0 0.0
vt 0.0 0.0
vt 0.0 0.0
vt 0.0 0.0
vt 0.0 0.0
vt 0.0 0.0
vt 0.0 0.0
vt 0.0 0.0
vt 0.0 0.0
vt 0.0 0.0
vt 0.0 0.0
vt 0.0 0.0
vt 0.0 0.0
vt 0.0 0.0
vt 0.0 0.0
vt 0.0 0.0
vt 0.0 0.0
vt 0.0 0.0
vt 0.0 0.0
vt 0.0 0.0
vt 0.0 0.0
vt 0.0 0.0
vt 0.0 0.0
vt 0.0 0.0
vt 0.0 0.0
vt 0.0 0.0
vt 0.0 0.0
vt 0.0 0.0
vt 0.0 0.0
vt 0.0 0.0
vt 0.0 0.0
vt 0.0 0.0
vt 0.0 0.0
vt 0.0 0.0
vt 0.0 0.0
vt 0.0 0.0
vt 0.0 0.0
vt 0.0 0.0
vt 0.0 0.0
vt 0.0 0.0
vt 0.0 0.0
vt 0.0 0.0
vt 0.0 0.0
vt 0.0 0.0
vt 0.0 0.0
vt 0.0 0.0
vt 0.0 0.0
vt 0.0 0.0
vt 0.0 0.0
vt 0.0 0.0
vt 0.0 0.0
vt 0.0 0.0
vt 0.0 0.0
vt 0.0 0.0
vt 0.0 0.0
vt 0.0 0.0
vt 0.0 0.0
vt 0.0 0.0
vt 0.0 0.0
vt 0.0 0.0
vt 0.0 0.0
vt 0.0 0.0
vt 0.0 0.0
vt 0.0 0.0
vt 0.0 0.0
vt 0.0 0.0
vt 0.0 0.0
vt 0.0 0.0
vt 0.0 0.0
vt 0.0 0.0
vt 0.0 0.0
vt 0.0 0.0
vt 0.0 0.0
vt 0.0 0.0
vt 0.0 0.0
vt 0.0 0.0
vt 0.0 0.0
vt 0.0 0.0
vt 0.0 0.0
vt 0.0 0.0
vt 0.0 0.0
vt 0.0 0.0
vt 0.0 0.0
vt 0.0 0.0
vt 0.0 0.0
vt 0.0 0.0
vt 0.0 0.0
vt 0.0 0.0
vt 0.0 0.0
vt 0.0 0.0
vt 0.0 0.0
vt 0.0 0.0
vt 0.0 0.0
vt 0.0 0.0
vt 0.0 0.0
vt 0.0 0.0
vt 0.0 0.0
vt 0.0 0.0
vt 0.0 0.0
vt 0.0 0.0
vt 0.0 0.0
vt 0.0 0.0
vt 0.0 0.0
vt 0.0 0.0
vt 0.0 0.0
vt 0.0 0.0
vt 0.0 0.0
vt 0.0 0.0
vt 0.0 0.0
vt 0.0 0.0
vt 0.0 0.0
vt 0.0 0.0
vt 0.0 0.0
vt 0.0 0.0
vt 0.0 0.0
vt 0.0 0.0
vt 0.0 0.0
vt 0.0 0.0
vt 0.0 0.0
vt 0.0 0.0
vt 0.0 0.0
vt 0.0 0.0
vt 0.0 0.0
vt 0.0 0.0
vt 0.0 0.0
vt 0.0 0.0
vt 0.0 0.0
vt 0.0 0.0
vt 0.0 0.0
vt 0.0 0.0
vt 0.0 0.0
vt 0.0 0.0
vt 0.0 0.0
vt 0.0 0.0
vt 0.0 0.0
vt 0.0 0.0
vt 0.0 0.0
vt 0.0 0.0
vt 0.0 0.0
vt 0.0 0.0
vt 0.0 0.0
vt 0.0 0.0
vt 0.0 0.0
vt 0.0 0.0
vt 0.0 0.0
vt 0.0 0.0
vt 0.0 0.0
vt 0.0 0.0
vt 0.0 0.0
vt 0.0 0.0
vt 0.0 0.0
vt 0.0 0.0
vt 0.0 0.0
vt 0.0 0.0
vt 0.0 0.0
vt 0.0 0.0
vt 0.0 0.0
vt 0.0 0.0
vt 0.0 0.0
vt 0.0 0.0
vt 0.0 0.0
vt 0.0 0.0
vt 0.0 0.0
vt 0.0 0.0
vt 0.0 0.0
vt 0.0 0.0
vt 0.0 0.0
vt 0.0 0.0
vt 0.0 0.0
vt 0.0 0.0
vt 0.0 0.0
vt 0.0 0.0
vt 0.0 0.0
vt 0.0 0.0
vt 0.0 0.0
vt 0.0 0.0
vt 0.0 0.0
vt 0.0 0.0
vt 0.0 0.0
vt 0.0 0.0
vt 0.0 0.0
vt 0.0 0.0
vt 0.0 0.0
vt 0.0 0.0
vt 0.0 0.0
vt 0.0 0.0
vt 0.0 0.0
vt 0.0 0.0
vt 0.0 0.0
vt 0.0 0.0
vt 0.0 0.0
vt 0.0 0.0
vt 0.0 0.0
vt 0.0 0.0
vt 0.0 0.0
vt 0.0 0.0
vt 0.0 0.0
vt 0.0 0.0
vt 0.0 0.0
vt 0.0 0.0
vt 0.0 0.0
vt 0.0 0.0
vt 0.0 0.0
vt 0.0 0.0
vt 0.0 0.0
vt 0.0 0.0
vt 0.0 0.0
vt 0.0 0.0
vt 0.0 0.0
vt 0.0 0.0
vt 0.0 0.0
vt 0.0 0.0
vt 0.0 0.0
vt 0.0 0.0
vt 0.0 0.0
vt 0.0 0.0
vt 0.0 0.0
vt 0.0 0.0
vt 0.0 0.0
vt 0.0 0.0
vt 0.0 0.0
vt 0.0 0.0
vt 0.0 0.0
vt 0.0 0.0
vt 0.0 0.0
vt 0.0 0.0
vt 0.0 0.0
vt 0.0 0.0
vt 0.0 0.0
vt 0.0 0.0
vt 0.0 0.0
vt 0.0 0.0
vt 0.0 0.0
vt 0.0 0.0
vt 0.0 0.0
vt 0.0 0.0
vt 0.0 0.0
vt 0.0 0.0
vt 0.0 0.0
vt 0.0 0.0
vt 0.0 0.0
vt 0.0 0.0
vt 0.0 0.0
vt 0.0 0.0
vt 0.0 0.0
vt 0.0 0.0
vt 0.0 0.0
vt 0.0 0.0
vt 0.0 0.0
vt 0.902332 0.685433
vt 0.764997 0.766747
vt 0.08376 0.233717
vt 0.902332 0.685433
vt 0.08376 0.233717
vt 0.904696 0.230408
vt 0.628135 0.808349
vt 0.491273 0.821349
vt 0.08376 0.233717
vt 0.08376 0.233717
vt 0.764997 0.766747
vt 0.628135 0.808349
vt 0.08376 0.233717
vt 0.354411 0.80953
vt 0.218022 0.768874
vt 0.491273 0.821349
vt 0.354411 0.80953
vt 0.08376 0.233717
vt 0.081632 0.688742
vt 0.08376 0.233717
vt 0.218022 0.768874
vt 0.902332 0.685433
vt 0.764997 0.766747
vt 0.08376 0.233717
vt 0.902332 0.685433
vt 0.08376 0.233717
vt 0.904696 0.230408
vt 0.628135 0.808349
vt 0.491273 0.821349
vt 0.08376 0.233717
vt 0.08376 0.233717
vt 0.764997 0.766747
vt 0.628135 0.808349
vt 0.08376 0.233717
vt 0.354411 0.80953
vt 0.218022 0.768874
vt 0.491273 0.821349
vt 0.354411 0.80953
vt 0.08376 0.233717
vt 0.081632 0.688742
vt 0.08376 0.233717
vt 0.218022 0.768874
vt 0.582005 0.859364
vt 0.75686 0.167914
vt 0.669902 0.809674
vt 0.669902 0.809674
vt 0.75686 0.167914
vt 0.757798 0.712636
vt 0.405745 0.86077
vt 0.75686 0.167914
vt 0.493875 0.874834
vt 0.493875 0.874834
vt 0.75686 0.167914
vt 0.582005 0.859364
vt 0.229483 0.715449
vt 0.75686 0.167914
vt 0.31738 0.812017
vt 0.31738 0.812017
vt 0.75686 0.167914
vt 0.405745 0.86077
vt 0.228546 0.171196
vt 0.75686 0.167914
vt 0.229483 0.715449
vt 0.582005 0.859364
vt 0.75686 0.167914
vt 0.669902 0.809674
vt 0.669902 0.809674
vt 0.75686 0.167914
vt 0.757798 0.712636
vt 0.405745 0.86077
vt 0.75686 0.167914
vt 0.493875 0.874834
vt 0.493875 0.874834
vt 0.75686 0.167914
vt 0.582005 0.859364
vt 0.229483 0.715449
vt 0.75686 0.167914
vt 0.31738 0.812017
vt 0.31738 0.812017
vt 0.75686 0.167914
vt 0.405745 0.86077
vt 0.228546 0.171196
vt 0.75686 0.167914
vt 0.229483 0.715449
vt -0.051758 0.910156
vt 0.985352 0.089844
vt 0.991211 0.958984
vt -0.051758 0.910156
vt -0.057617 0.042969
vt 0.985352 0.089844
vt -0.051758 0.910156
vt 0.985352 0.089844
vt 0.991211 0.958984
vt -0.051758 0.910156
vt -0.057617 0.042969
vt 0.985352 0.089844
vt 0.76023 0.234697
vt 0.659777 0.334135
vt 0.268111 0.21694
vt 0.733848 0.645642
vt 0.659777 0.334135
vt 0.76023 0.234697
vt 0.733848 0.645642
vt 0.102718 0.61926
vt 0.659777 0.334135
vt 0.659777 0.334135
vt 0.102718 0.61926
vt 0.248831 0.337179
vt 0.480179 0.995706
vt 0.102718 0.61926
vt 0.733848 0.645642
vt 0.659777 0.334135
vt 0.248831 0.337179
vt 0.268111 0.21694
vt 0.685144 0.213896
vt 0.71254 0.339209
vt 0.30058 0.323481
vt 0.248324 0.644627
vt 0.879962 0.637017
vt 0.527869 1.016507
vt 0.71254 0.339209
vt 0.879962 0.637017
vt 0.30058 0.323481
vt 0.30058 0.323481
vt 0.879962 0.637017
vt 0.248324 0.644627
vt 0.193024 0.21694
vt 0.30058 0.323481
vt 0.248324 0.644627
vt 0.685144 0.213896
vt 0.30058 0.323481
vt 0.193024 0.21694
vt 0.76023 0.234697
vt 0.659777 0.334135
vt 0.268111 0.21694
vt 0.733848 0.645642
vt 0.659777 0.334135
vt 0.76023 0.234697
vt 0.733848 0.645642
vt 0.102718 0.61926
vt 0.659777 0.334135
vt 0.659777 0.334135
vt 0.102718 0.61926
vt 0.248831 0.337179
vt 0.480179 0.995706
vt 0.102718 0.61926
vt 0.733848 0.645642
vt 0.659777 0.334135
vt 0.248831 0.337179
vt 0.268111 0.21694
vt 0.685144 0.213896
vt 0.71254 0.339209
vt 0.30058 0.323481
vt 0.248324 0.644627
vt 0.879962 0.637017
vt 0.527869 1.016507
vt 0.71254 0.339209
vt 0.879962 0.637017
vt 0.30058 0.323481
vt 0.30058 0.323481
vt 0.879962 0.637017
vt 0.248324 0.644627
vt 0.193024 0.21694
vt 0.30058 0.323481
vt 0.248324 0.644627
vt 0.685144 0.213896
vt 0.30058 0.323481
vt 0.193024 0.21694

# 432 Vertex Normals
vn -1.0 0.0 -0.0
vn -1.0 0.0 -0.0
vn -1.0 0.0 -0.0
vn -1.0 0.0 0.0
vn -1.0 0.0 0.0
vn -1.0 0.0 0.0
vn -0.447214 0.894427 0.0
vn -0.447214 0.894427 0.0
vn -0.412662 0.910884 -0.0
vn -0.377453 0.926029 -0.0
vn -0.412662 0.910884 -0.0
vn -0.447214 0.894427 0.0
vn -0.257525 0.966272 -0.0
vn -0.412662 0.910884 -0.0
vn -0.377453 0.926029 -0.0
vn -0.170613 0.985338 0.0
vn -0.257525 0.966272 -0.0
vn -0.377453 0.926029 -0.0
vn 0.0 1.0 0.0
vn -0.257525 0.966272 -0.0
vn -0.170613 0.985338 0.0
vn -0.0 1.0 0.0
vn 0.0 1.0 0.0
vn -0.170613 0.985338 0.0
vn 0.170613 0.985338 0.0
vn 0.257526 0.966272 0.0
vn 0.0 1.0 0.0
vn -0.0 1.0 0.0
vn 0.170613 0.985338 0.0
vn 0.0 1.0 0.0
vn 0.377453 0.926029 0.0
vn 0.412662 0.910884 -0.0
vn 0.257526 0.966272 0.0
vn 0.170613 0.985338 0.0
vn 0.377453 0.926029 0.0
vn 0.257526 0.966272 0.0
vn 0.850651 0.525731 -0.0
vn 0.850651 0.525731 -0.0
vn 0.412662 0.910884 -0.0
vn 0.377453 0.926029 0.0
vn 0.850651 0.525731 -0.0
vn 0.412662 0.910884 -0.0
vn 0.850651 0.525731 -0.0
vn 1.0 0.0 -0.0
vn 1.0 0.0 -0.0
vn 0.850651 0.525731 -0.0
vn 1.0 0.0 -0.0
vn 0.850651 0.525731 -0.0
vn -0.950815 0.269363 -0.152955
vn -0.726619 0.04472 0.685584
vn -0.732199 0.672626 0.107049
vn -0.525277 -0.783462 0.33207
vn -0.370051 -0.518003 0.771191
vn -0.726619 0.04472 0.685584
vn 0.245405 0.426873 -0.870377
vn -0.309053 -0.012911 -0.950957
vn -0.253261 0.898753 -0.357913
vn -0.732199 0.672626 0.107049
vn -0.726619 0.04472 0.685584
vn -0.095107 0.862489 0.497059
vn -0.253261 0.898753 -0.357913
vn -0.820064 0.323243 -0.472238
vn -0.732199 0.672626 0.107049
vn 0.950303 0.23102 0.208698
vn 0.686744 0.701518 0.190407
vn 0.633291 0.214366 0.743633
vn 0.950303 0.23102 0.208698
vn 0.633291 0.214366 0.743633
vn 0.510342 -0.539708 0.669527
vn 0.686744 0.701518 0.190407
vn -0.095107 0.862489 0.497059
vn 0.633291 0.214366 0.743633
vn -0.253261 0.898753 -0.357913
vn -0.095107 0.862489 0.497059
vn 0.662099 0.73425 -0.150002
vn -0.253261 0.898753 -0.357913
vn -0.732199 0.672626 0.107049
vn -0.095107 0.862489 0.497059
vn -0.250695 -0.476123 -0.842887
vn -0.141059 -0.253468 -0.957004
vn 0.0 -0.345817 -0.938302
vn -0.250695 -0.476123 -0.842887
vn 0.0 -0.345817 -0.938302
vn -0.0 -0.371391 -0.928477
vn -0.391889 -0.89719 -0.203648
vn -0.991851 -0.001352 0.127394
vn -0.528999 0.073092 -0.845469
vn 0.0 -0.345817 -0.938302
vn -0.141059 -0.253468 -0.957004
vn 0.142153 -0.002616 -0.989841
vn -0.142153 -0.002616 -0.989841
vn 0.141059 -0.253468 -0.957004
vn 0.0 -0.345817 -0.938302
vn 0.528999 0.073092 -0.845469
vn 0.991851 -0.001352 0.127394
vn 0.391889 -0.89719 -0.203648
vn -0.0 -0.371391 -0.928477
vn 0.0 -0.345817 -0.938302
vn 0.250695 -0.476123 -0.842887
vn 0.0 -0.345817 -0.938302
vn 0.141059 -0.253468 -0.957004
vn 0.250695 -0.476123 -0.842887
vn 0.095107 0.862489 0.497059
vn 0.732199 0.672626 0.107049
vn 0.253261 0.898753 -0.357913
vn -0.662099 0.73425 -0.150002
vn 0.095107 0.862489 0.497059
vn 0.253261 0.898753 -0.357913
vn -0.633291 0.214366 0.743633
vn 0.095107 0.862489 0.497059
vn -0.686744 0.701518 0.190407
vn -0.510342 -0.539708 0.669527
vn -0.633291 0.214366 0.743633
vn -0.950303 0.231019 0.208698
vn -0.633291 0.214366 0.743633
vn -0.686744 0.701518 0.190407
vn -0.950303 0.231019 0.208698
vn 0.732199 0.672626 0.107049
vn 0.820064 0.323243 -0.472238
vn 0.253261 0.898753 -0.357913
vn 0.095107 0.862489 0.497059
vn 0.726619 0.04472 0.685584
vn 0.732199 0.672626 0.107049
vn 0.253261 0.898753 -0.357913
vn 0.309053 -0.012911 -0.950957
vn -0.245405 0.426873 -0.870377
vn 0.726619 0.04472 0.685584
vn 0.370052 -0.518003 0.771191
vn 0.525277 -0.783462 0.33207
vn 0.732199 0.672626 0.107049
vn 0.726619 0.04472 0.685584
vn 0.950815 0.269363 -0.152955
vn -1.0 0.0 -0.0
vn -1.0 0.0 -0.0
vn -1.0 0.0 -0.0
vn -1.0 0.0 0.0
vn -1.0 0.0 0.0
vn -1.0 0.0 0.0
vn -0.447214 0.894427 0.0
vn -0.447214 0.894427 0.0
vn -0.412662 0.910884 -0.0
vn -0.377453 0.926029 -0.0
vn -0.412662 0.910884 -0.0
vn -0.447214 0.894427 0.0
vn -0.257525 0.966272 -0.0
vn -0.412662 0.910884 -0.0
vn -0.377453 0.926029 -0.0
vn -0.170613 0.985338 0.0
vn -0.257525 0.966272 -0.0
vn -0.377453 0.926029 -0.0
vn 0.0 1.0 0.0
vn -0.257525 0.966272 -0.0
vn -0.170613 0.985338 0.0
vn -0.0 1.0 0.0
vn 0.0 1.0 0.0
vn -0.170613 0.985338 0.0
vn 0.170613 0.985338 0.0
vn 0.257526 0.966272 0.0
vn 0.0 1.0 0.0
vn -0.0 1.0 0.0
vn 0.170613 0.985338 0.0
vn 0.0 1.0 0.0
vn 0.377453 0.926029 0.0
vn 0.412662 0.910884 -0.0
vn 0.257526 0.966272 0.0
vn 0.170613 0.985338 0.0
vn 0.377453 0.926029 0.0
vn 0.257526 0.966272 0.0
vn 0.850651 0.525731 -0.0
vn 0.850651 0.525731 -0.0
vn 0.412662 0.910884 -0.0
vn 0.377453 0.926029 0.0
vn 0.850651 0.525731 -0.0
vn 0.412662 0.910884 -0.0
vn 0.850651 0.525731 -0.0
vn 1.0 0.0 -0.0
vn 1.0 0.0 -0.0
vn 0.850651 0.525731 -0.0
vn 1.0 0.0 -0.0
vn 0.850651 0.525731 -0.0
vn -0.950815 0.269363 -0.152955
vn -0.726619 0.04472 0.685584
vn -0.732199 0.672626 0.107049
vn -0.525277 -0.783462 0.33207
vn -0.370051 -0.518003 0.771191
vn -0.726619 0.04472 0.685584
vn 0.245405 0.426873 -0.870377
vn -0.309053 -0.012911 -0.950957
vn -0.253261 0.898753 -0.357913
vn -0.732199 0.672626 0.107049
vn -0.726619 0.04472 0.685584
vn -0.095107 0.862489 0.497059
vn -0.253261 0.898753 -0.357913
vn -0.820064 0.323243 -0.472238
vn -0.732199 0.672626 0.107049
vn 0.950303 0.23102 0.208698
vn 0.686744 0.701518 0.190407
vn 0.633291 0.214366 0.743633
vn 0.950303 0.23102 0.208698
vn 0.633291 0.214366 0.743633
vn 0.510342 -0.539708 0.669527
vn 0.686744 0.701518 0.190407
vn -0.095107 0.862489 0.497059
vn 0.633291 0.214366 0.743633
vn -0.253261 0.898753 -0.357913
vn -0.095107 0.862489 0.497059
vn 0.662099 0.73425 -0.150002
vn -0.253261 0.898753 -0.357913
vn -0.732199 0.672626 0.107049
vn -0.095107 0.862489 0.497059
vn -0.250695 -0.476123 -0.842887
vn -0.141059 -0.253468 -0.957004
vn 0.0 -0.345817 -0.938302
vn -0.250695 -0.476123 -0.842887
vn 0.0 -0.345817 -0.938302
vn -0.0 -0.371391 -0.928477
vn -0.391889 -0.89719 -0.203648
vn -0.991851 -0.001352 0.127394
vn -0.528999 0.073092 -0.845469
vn 0.0 -0.345817 -0.938302
vn -0.141059 -0.253468 -0.957004
vn 0.142153 -0.002616 -0.989841
vn -0.142153 -0.002616 -0.989841
vn 0.141059 -0.253468 -0.957004
vn 0.0 -0.345817 -0.938302
vn 0.528999 0.073092 -0.845469
vn 0.991851 -0.001352 0.127394
vn 0.391889 -0.89719 -0.203648
vn -0.0 -0.371391 -0.928477
vn 0.0 -0.345817 -0.938302
vn 0.250695 -0.476123 -0.842887
vn 0.0 -0.345817 -0.938302
vn 0.141059 -0.253468 -0.957004
vn 0.250695 -0.476123 -0.842887
vn 0.095107 0.862489 0.497059
vn 0.732199 0.672626 0.107049
vn 0.253261 0.898753 -0.357913
vn -0.662099 0.73425 -0.150002
vn 0.095107 0.862489 0.497059
vn 0.253261 0.898753 -0.357913
vn -0.633291 0.214366 0.743633
vn 0.095107 0.862489 0.497059
vn -0.686744 0.701518 0.190407
vn -0.510342 -0.539708 0.669527
vn -0.633291 0.214366 0.743633
vn -0.950303 0.231019 0.208698
vn -0.633291 0.214366 0.743633
vn -0.686744 0.701518 0.190407
vn -0.950303 0.231019 0.208698
vn 0.732199 0.672626 0.107049
vn 0.820064 0.323243 -0.472238
vn 0.253261 0.898753 -0.357913
vn 0.095107 0.862489 0.497059
vn 0.726619 0.04472 0.685584
vn 0.732199 0.672626 0.107049
vn 0.253261 0.898753 -0.357913
vn 0.309053 -0.012911 -0.950957
vn -0.245405 0.426873 -0.870377
vn 0.726619 0.04472 0.685584
vn 0.370052 -0.518003 0.771191
vn 0.525277 -0.783462 0.33207
vn 0.732199 0.672626 0.107049
vn 0.726619 0.04472 0.685584
vn 0.950815 0.269363 -0.152955
vn 0.0 -0.0 1.0
vn 0.0 -0.0 1.0
vn 0.0 -0.0 1.0
vn 0.0 -0.0 1.0
vn 0.0 -0.0 1.0
vn 0.0 -0.0 1.0
vn 0.0 -0.0 1.0
vn 0.0 -0.0 1.0
vn 0.0 -0.0 1.0
vn 0.0 -0.0 1.0
vn 0.0 -0.0 1.0
vn 0.0 -0.0 1.0
vn 0.0 -0.0 1.0
vn 0.0 -0.0 1.0
vn 0.0 -0.0 1.0
vn 0.0 -0.0 1.0
vn 0.0 -0.0 1.0
vn 0.0 -0.0 1.0
vn 0.0 0.0 1.0
vn 0.0 -0.0 1.0
vn 0.0 -0.0 1.0
vn 0.0 -0.0 1.0
vn 0.0 -0.0 1.0
vn 0.0 -0.0 1.0
vn 0.0 -0.0 1.0
vn 0.0 -0.0 1.0
vn 0.0 -0.0 1.0
vn 0.0 -0.0 1.0
vn 0.0 -0.0 1.0
vn 0.0 -0.0 1.0
vn 0.0 -0.0 1.0
vn 0.0 -0.0 1.0
vn 0.0 -0.0 1.0
vn 0.0 -0.0 1.0
vn 0.0 -0.0 1.0
vn 0.0 -0.0 1.0
vn 0.0 -0.0 1.0
vn 0.0 -0.0 1.0
vn 0.0 -0.0 1.0
vn 0.0 0.0 1.0
vn 0.0 -0.0 1.0
vn 0.0 -0.0 1.0
vn 0.0 -0.0 -1.0
vn 0.0 -0.0 -1.0
vn 0.0 -0.0 -1.0
vn 0.0 -0.0 -1.0
vn 0.0 -0.0 -1.0
vn 0.0 -0.0 -1.0
vn 0.0 -0.0 -1.0
vn 0.0 -0.0 -1.0
vn 0.0 0.0 -1.0
vn 0.0 0.0 -1.0
vn 0.0 -0.0 -1.0
vn 0.0 -0.0 -1.0
vn 0.0 0.0 -1.0
vn 0.0 -0.0 -1.0
vn 0.0 -0.0 -1.0
vn 0.0 -0.0 -1.0
vn 0.0 -0.0 -1.0
vn 0.0 -0.0 -1.0
vn 0.0 0.0 -1.0
vn 0.0 -0.0 -1.0
vn 0.0 0.0 -1.0
vn 0.0 -0.0 -1.0
vn 0.0 -0.0 -1.0
vn 0.0 -0.0 -1.0
vn 0.0 -0.0 -1.0
vn 0.0 -0.0 -1.0
vn 0.0 -0.0 -1.0
vn 0.0 -0.0 -1.0
vn 0.0 -0.0 -1.0
vn 0.0 0.0 -1.0
vn 0.0 0.0 -1.0
vn 0.0 -0.0 -1.0
vn 0.0 -0.0 -1.0
vn 0.0 0.0 -1.0
vn 0.0 -0.0 -1.0
vn 0.0 -0.0 -1.0
vn 0.0 -0.0 -1.0
vn 0.0 -0.0 -1.0
vn 0.0 -0.0 -1.0
vn 0.0 0.0 -1.0
vn 0.0 -0.0 -1.0
vn 0.0 0.0 -1.0
vn 0.0 -1.0 0.0
vn 0.0 -1.0 0.0
vn 0.0 -1.0 0.0
vn 0.0 -1.0 0.0
vn 0.0 -1.0 0.0
vn 0.0 -1.0 0.0
vn 0.0 -1.0 0.0
vn 0.0 -1.0 0.0
vn 0.0 -1.0 0.0
vn 0.0 -1.0 0.0
vn 0.0 -1.0 0.0
vn 0.0 -1.0 0.0
vn 0.0 -0.496141 0.868242
vn 0.127365 -0.406146 0.904889
vn -0.525277 -0.783462 0.33207
vn 0.633291 0.214366 0.743633
vn 0.127365 -0.406146 0.904889
vn 0.272744 -0.524112 0.806795
vn 0.633291 0.214366 0.743633
vn -0.590743 0.136606 0.795211
vn 0.127365 -0.406146 0.904889
vn 0.127365 -0.406146 0.904889
vn -0.590743 0.136606 0.795211
vn -0.370051 -0.518003 0.771191
vn -0.095107 0.862489 0.497059
vn -0.590743 0.136606 0.795211
vn 0.633291 0.214366 0.743633
vn 0.127365 -0.406146 0.904889
vn -0.370051 -0.518003 0.771191
vn -0.525277 -0.783462 0.33207
vn 0.525277 -0.783462 0.33207
vn 0.370052 -0.518003 0.771191
vn -0.127365 -0.406146 0.904889
vn -0.633291 0.214366 0.743633
vn 0.590743 0.136606 0.795211
vn 0.095107 0.862489 0.497059
vn 0.370052 -0.518003 0.771191
vn 0.590743 0.136606 0.795211
vn -0.127365 -0.406146 0.904889
vn -0.127365 -0.406146 0.904889
vn 0.590743 0.136606 0.795211
vn -0.633291 0.214366 0.743633
vn -0.272744 -0.524112 0.806795
vn -0.127365 -0.406146 0.904889
vn -0.633291 0.214366 0.743633
vn 0.525277 -0.783462 0.33207
vn -0.127365 -0.406146 0.904889
vn 0.0 -0.496141 0.868242
vn 0.0 -0.496141 0.868242
vn 0.127365 -0.406146 0.904889
vn -0.525277 -0.783462 0.33207
vn 0.633291 0.214366 0.743633
vn 0.127365 -0.406146 0.904889
vn 0.272744 -0.524112 0.806795
vn 0.633291 0.214366 0.743633
vn -0.590743 0.136606 0.795211
vn 0.127365 -0.406146 0.904889
vn 0.127365 -0.406146 0.904889
vn -0.590743 0.136606 0.795211
vn -0.370051 -0.518003 0.771191
vn -0.095107 0.862489 0.497059
vn -0.590743 0.136606 0.795211
vn 0.633291 0.214366 0.743633
vn 0.127365 -0.406146 0.904889
vn -0.370051 -0.518003 0.771191
vn -0.525277 -0.783462 0.33207
vn 0.525277 -0.783462 0.33207
vn 0.370052 -0.518003 0.771191
vn -0.127365 -0.406146 0.904889
vn -0.633291 0.214366 0.743633
vn 0.590743 0.136606 0.795211
vn 0.095107 0.862489 0.497059
vn 0.370052 -0.518003 0.771191
vn 0.590743 0.136606 0.795211
vn -0.127365 -0.406146 0.904889
vn -0.127365 -0.406146 0.904889
vn 0.590743 0.136606 0.795211
vn -0.633291 0.214366 0.743633
vn -0.272744 -0.524112 0.806795
vn -0.127365 -0.406146 0.904889
vn -0.633291 0.214366 0.743633
vn 0.525277 -0.783462 0.33207
vn -0.127365 -0.406146 0.904889
vn 0.0 -0.496141 0.868242

# 114, 46 grouped triangles

usemtl material_113
o 114
g 114

f 3/1/1 2/2/2 1/3/3
f 6/4/4 5/5/5 4/6/6
f 9/7/7 8/8/8 7/9/9
f 10/10/10 7/11/11 8/12/12
f 11/13/13 7/14/14 10/15/15
f 12/16/16 11/17/17 10/18/18
f 13/19/19 11/20/20 12/21/21
f 14/22/22 13/23/23 12/24/24
f 16/25/25 15/26/26 13/27/27
f 14/28/28 16/29/29 13/30/30
f 18/31/31 17/32/32 15/33/33
f 16/34/34 18/35/35 15/36/36
f 20/37/37 19/38/38 17/39/39
f 18/40/40 20/41/41 17/42/42
f 20/43/43 22/44/44 21/45/45
f 20/46/46 21/47/47 19/48/48
f 49/133/133 48/134/134 47/135/135
f 52/136/136 51/137/137 50/138/138
f 9/139/139 8/140/140 7/141/141
f 10/142/142 7/143/143 8/144/144
f 11/145/145 7/146/146 10/147/147
f 12/148/148 11/149/149 10/150/150
f 13/151/151 11/152/152 12/153/153
f 14/154/154 13/155/155 12/156/156
f 16/157/157 15/158/158 13/159/159
f 14/160/160 16/161/161 13/162/162
f 18/163/163 17/164/164 15/165/165
f 16/166/166 18/167/167 15/168/168
f 20/169/169 19/170/170 17/171/171
f 18/172/172 20/173/173 17/174/174
f 20/175/175 22/176/176 21/177/177
f 20/178/178 21/179/179 19/180/180
f 20/265/265 18/266/266 23/267/267
f 20/268/268 23/269/269 22/270/270
f 16/271/271 14/272/272 23/273/273
f 23/274/274 18/275/275 16/276/276
f 23/277/277 12/278/278 10/279/279
f 14/280/280 12/281/281 23/282/282
f 8/283/283 23/284/284 10/285/285
f 20/286/286 18/287/287 23/288/288
f 20/289/289 23/290/290 22/291/291
f 16/292/292 14/293/293 23/294/294
f 23/295/295 18/296/296 16/297/297
f 23/298/298 12/299/299 10/300/300
f 14/301/301 12/302/302 23/303/303
f 8/304/304 23/305/305 10/306/306
# 115, 14 grouped triangles

usemtl material_114
o 115
g 115

f 11/307/307 24/308/308 7/309/309
f 7/310/310 24/311/311 9/312/312
f 15/313/313 24/314/314 13/315/315
f 13/316/316 24/317/317 11/318/318
f 19/319/319 24/320/320 17/321/321
f 17/322/322 24/323/323 15/324/324
f 21/325/325 24/326/326 19/327/327
f 11/328/328 24/329/329 7/330/330
f 7/331/331 24/332/332 9/333/333
f 15/334/334 24/335/335 13/336/336
f 13/337/337 24/338/338 11/339/339
f 19/340/340 24/341/341 17/342/342
f 17/343/343 24/344/344 15/345/345
f 21/346/346 24/347/347 19/348/348
# 116, 4 grouped triangles

usemtl material_115
o 116
g 116

f 23/349/349 21/350/350 22/351/351
f 23/352/352 24/353/353 21/354/354
f 23/355/355 21/356/356 22/357/357
f 23/358/358 24/359/359 21/360/360
# 117, 80 grouped triangles

usemtl material_116
o 117
g 117

f 33/49/49 29/50/50 32/51/51
f 25/52/52 30/53/53 29/54/54
f 35/55/55 33/56/56 34/57/57
f 32/58/58 29/59/59 31/60/60
f 34/61/61 33/62/62 32/63/63
f 36/64/64 35/65/65 28/66/66
f 36/67/67 28/68/68 27/69/69
f 35/70/70 31/71/71 28/72/72
f 34/73/73 31/74/74 35/75/75
f 34/76/76 32/77/77 31/78/78
f 25/79/79 33/80/80 36/81/81
f 25/82/82 36/83/83 27/84/84
f 25/85/85 29/86/86 33/87/87
f 36/88/88 33/89/89 35/90/90
f 38/91/91 37/92/92 36/93/93
f 37/94/94 40/95/95 39/96/96
f 27/97/97 36/98/98 39/99/99
f 36/100/100 37/101/101 39/102/102
f 43/103/103 42/104/104 41/105/105
f 38/106/106 43/107/107 41/108/108
f 44/109/109 43/110/110 38/111/111
f 27/112/112 44/113/113 36/114/114
f 44/115/115 38/116/116 36/117/117
f 42/118/118 37/119/119 41/120/120
f 43/121/121 40/122/122 42/123/123
f 41/124/124 37/125/125 38/126/126
f 40/127/127 45/128/128 39/129/129
f 42/130/130 40/131/131 37/132/132
f 33/181/181 29/182/182 32/183/183
f 25/184/184 30/185/185 29/186/186
f 35/187/187 33/188/188 34/189/189
f 32/190/190 29/191/191 31/192/192
f 34/193/193 33/194/194 32/195/195
f 36/196/196 35/197/197 28/198/198
f 36/199/199 28/200/200 27/201/201
f 35/202/202 31/203/203 28/204/204
f 34/205/205 31/206/206 35/207/207
f 34/208/208 32/209/209 31/210/210
f 25/211/211 33/212/212 36/213/213
f 25/214/214 36/215/215 27/216/216
f 25/217/217 29/218/218 33/219/219
f 36/220/220 33/221/221 35/222/222
f 38/223/223 37/224/224 36/225/225
f 37/226/226 40/227/227 39/228/228
f 27/229/229 36/230/230 39/231/231
f 36/232/232 37/233/233 39/234/234
f 43/235/235 42/236/236 41/237/237
f 38/238/238 43/239/239 41/240/240
f 44/241/241 43/242/242 38/243/243
f 27/244/244 44/245/245 36/246/246
f 44/247/247 38/248/248 36/249/249
f 42/250/250 37/251/251 41/252/252
f 43/253/253 40/254/254 42/255/255
f 41/256/256 37/257/257 38/258/258
f 40/259/259 45/260/260 39/261/261
f 42/262/262 40/263/263 37/264/264
f 27/361/361 26/362/362 25/363/363
f 28/364/364 26/365/365 27/366/366
f 28/367/367 29/368/368 26/369/369
f 26/370/370 29/371/371 30/372/372
f 31/373/373 29/374/374 28/375/375
f 26/376/376 30/377/377 25/378/378
f 39/379/379 45/380/380 46/381/381
f 44/382/382 40/383/383 43/384/384
f 45/385/385 40/386/386 46/387/387
f 46/388/388 40/389/389 44/390/390
f 27/391/391 46/392/392 44/393/393
f 39/394/394 46/395/395 27/396/396
f 27/397/397 26/398/398 25/399/399
f 28/400/400 26/401/401 27/402/402
f 28/403/403 29/404/404 26/405/405
f 26/406/406 29/407/407 30/408/408
f 31/409/409 29/410/410 28/411/411
f 26/412/412 30/413/413 25/414/414
f 39/415/415 45/416/416 46/417/417
f 44/418/418 40/419/419 43/420/420
f 45/421/421 40/422/422 46/423/423
f 46/424/424 40/425/425 44/426/426
f 27/427/427 46/428/428 44/429/429
f 39/430/430 46/431/431 27/432/432
