# Alias OBJ Model File
# Exported from SketchUp, (c) 2000-2012 Trimble Navigation Limited
# File units = inches

mtllib BishopB.mtl

g Mesh1 Group2 Group1 Model

usemtl M_54CE5DCA_c
v 0.000386655 3.30715 8.33588e-005
vt 0.5 0.50293
vn 9.9286e-005 1 -7.7617e-005
v 0.756107 2.92918 0.425365
vt 1.09829e-013 0.75
vn 0.868571 -0.12431 0.47972
v 0.756299 2.92902 -0.424885
vt 1.1445e-013 0.25
vn 0.868624 -0.124428 -0.479594
f 1/1/1 2/2/2 3/3/3

v 0.000173479 2.92908 0.897755
vt 0.499949 1.00006
vn 0.000164778 -0.127773 0.991803
vt -5.1118e-005 0.750063
vn 0.868571 -0.12431 0.47972
vt 0.499949 0.502993
vn 9.9286e-005 1 -7.7617e-005
f 4/4/4 2/5/5 1/6/6

usemtl D21C421_c
vt 0.500044 0.999923
v 0.000301226 2.74022 0.000195023
vt 0.500042 0.502853
vn -5.19836e-005 -1 -8.6179e-006
vt 4.31268e-005 0.749924
f 4/7/4 5/8/7 2/9/2

v -0.75577 2.92912 0.425503
vt 1.00015 0.749918
vn -0.868712 -0.124242 0.479482
vt 0.500154 0.50284
vn -5.19836e-005 -1 -8.6179e-006
vt 0.500143 0.99991
vn 0.000164778 -0.127773 0.991803
f 6/10/8 5/11/9 4/12/10

vt 1.00039 0.750005
v -0.75549 2.92928 -0.424945
vt 1.00039 0.250005
vn -0.86849 -0.124217 -0.479891
vt 0.50039 0.502935
vn -5.19836e-005 -1 -8.6179e-006
f 6/13/8 7/14/11 5/15/12

usemtl M_54CE5DCA_c
vt 1.00061 0.749847
vn -0.868712 -0.124242 0.479482
vt 0.500622 0.50276
vn 9.9286e-005 1 -7.7617e-005
vt 1.00063 0.249847
f 6/16/13 1/17/14 7/18/11

vt 0.999966 0.749968
vn -0.868712 -0.124242 0.479482
vt 0.499966 0.999968
vt 0.499966 0.502898
vn 9.9286e-005 1 -7.7617e-005
f 6/19/15 4/20/4 1/21/16

vt 1.00067 0.249541
vn -0.86849 -0.124217 -0.479891
vt 0.500654 0.502451
vn 9.9286e-005 1 -7.7617e-005
v 0.000352637 2.92905 -0.89714
vt 0.500685 -0.000477843
vn -3.47723e-005 -0.127867 -0.991791
f 7/22/17 1/23/18 8/24/19

vt 0.500162 -2.0224e-005
vn -3.47723e-005 -0.127867 -0.991791
vt 0.500135 0.502911
vn 9.9286e-005 1 -7.7617e-005
vt 0.000149851 0.249964
f 8/25/20 1/26/21 3/27/3

usemtl D21C421_c
vt 0.500225 0.50294
vt 0.500237 1.0182e-005
vn -3.47723e-005 -0.127867 -0.991791
vt 0.000231036 0.250002
vn 0.868624 -0.124428 -0.479594
f 5/28/7 8/29/22 3/30/23

vt 0.999785 0.250168
vn -0.86849 -0.124217 -0.479891
vt 0.499781 0.000174153
vt 0.49979 0.503104
vn -5.19836e-005 -1 -8.6179e-006
f 7/31/24 8/32/22 5/33/25

vt 0.499782 0.502923
vn -5.19836e-005 -1 -8.6179e-006
vt -0.00021788 0.249992
vt -0.000218756 0.749992
f 5/34/26 3/35/23 2/36/2

g Mesh2 Group3 Group1 Model

usemtl M_345ED821_c
v 0.47265 3.68486 0.283894
vt -0.50977 0.62842
vn 0.87162 0.0632698 0.486082
v 0.472641 3.6849 -0.283276
vt -0.19922 0.62842
vn 0.870826 0.0567522 -0.488305
v 0.378326 4.15739 -0.235929
vt -0.19922 1.125
vn 0.791747 0.529847 -0.303973
f 9/37/27 10/38/28 11/39/29

vt -0.50977 0.62842
vn 0.87162 0.0632698 0.486082
v 0.425581 3.07073 0.236591
vt -0.50977 2.30345e-014
vn 0.946597 -0.0961974 0.307733
vt -0.19922 0.62842
vn 0.870826 0.0567522 -0.488305
f 9/40/30 12/41/31 10/42/32

usemtl M_2479C1FD_c
vt 1.49023 0.62842
v 0.000273155 3.07103 0.520078
vt 1.17481 2.79637e-014
vn 0.198557 -0.0914609 0.975812
vt 1.49023 3.26683e-014
f 9/43/27 13/44/33 12/45/31

v 0.00040715 3.68515 0.567282
vt 1.17481 0.628449
vn -0.00613318 0.056793 0.998367
vt 1.17481 2.85909e-005
vn 0.198557 -0.0914609 0.975812
vt 1.49023 0.628449
f 14/46/34 13/47/35 9/48/30

vt 1.17479 0.628436
vn -0.00613318 0.056793 0.998367
v -0.42514 3.07102 0.236591
vt 0.800764 1.60682e-005
vn -0.771537 -0.0913114 0.629598
vt 1.17479 1.62007e-005
f 14/49/36 15/50/37 13/51/35

vt 1.17481 0.62842
vn -0.00613318 0.056793 0.998367
v -0.471934 3.68515 0.283698
vt 0.80078 0.62842
vn -0.870847 0.0570095 0.488237
vt 0.80078 1.21694e-013
f 14/52/38 16/53/39 15/54/37

v 0.000297353 4.15739 0.472741
vt 1.17481 1.125
vn -0.117787 0.549734 0.826994
vt 0.80078 0.62842
vn -0.870847 0.0570095 0.488237
vt 1.17481 0.62842
vn -0.00613318 0.056793 0.998367
f 17/55/40 16/56/41 14/57/42

vt 1.17481 1.125
v -0.37761 4.15729 0.236465
vt 0.80078 1.125
vn -0.773771 0.558581 0.298775
vt 0.80078 0.62842
f 17/58/40 18/59/43 16/60/39

usemtl M_5D61A6B3_c
vt 0.87891 0.78027
vn -0.773771 0.558581 0.298775
vt 0.40918 0.92383
vn -0.117787 0.549734 0.826994
v 0.0477845 4.39364 0.000255403
vt 0.5 0.5
vn 0.028414 0.999596 9.28323e-006
f 18/61/44 17/62/45 19/63/46

vt 0.406449 0.921783
vn -0.117787 0.549734 0.826994
v 0.378265 4.15744 0.236544
vt 0.0284108 0.641581
vn 0.683364 0.525497 0.506821
vt 0.497078 0.497915
vn 0.028414 0.999596 9.28323e-006
f 17/64/47 20/65/48 19/66/49

usemtl M_2479C1FD_c
vt 1.49023 1.125
vn 0.683364 0.525497 0.506821
vt 1.17481 1.125
vn -0.117787 0.549734 0.826994
vt 1.17481 0.62842
vn -0.00613318 0.056793 0.998367
f 20/67/50 17/68/51 14/69/52

vt 1.49023 1.125
vt 1.17481 0.62842
vt 1.49023 0.62842
vn 0.87162 0.0632698 0.486082
f 20/70/48 14/71/52 9/72/53

usemtl M_345ED821_c
vt -0.50977 0.62842
vn 0.87162 0.0632698 0.486082
vt -0.19922 1.125
vt -0.50977 1.125
f 9/73/54 11/74/29 20/75/50

usemtl M_5D61A6B3_c
vt 0.498155 0.49894
vn 0.028414 0.999596 9.28323e-006
vt 0.0294291 0.642547
vt 0.119199 0.218716
f 19/76/55 20/77/50 11/78/29

v 0.000418892 4.1573 -0.472205
vt 0.590464 0.0761541
vn 0.129599 0.548749 -0.825881
vt 0.499653 0.499985
vn 0.028414 0.999596 9.28323e-006
vt 0.120738 0.219719
vn 0.791747 0.529847 -0.303973
f 21/79/56 19/80/57 11/81/58

v -0.377682 4.15747 -0.23571
vt 0.96875 0.35645
vn -0.663199 0.553714 -0.503555
vt 0.5 0.5
vt 0.59082 0.07617
f 22/82/59 19/83/46 21/84/56

vt 0.96875 0.35645
vt 0.87891 0.78027
vn -0.773771 0.558581 0.298775
vt 0.5 0.5
vn 0.028414 0.999596 9.28323e-006
f 22/85/59 18/86/60 19/87/61

usemtl M_2479C1FD_c
vt 0.80078 1.125
vt 0.49023 1.125
v -0.472165 3.68507 -0.282975
vt 0.49023 0.62842
vn -0.871748 0.0634633 -0.485826
f 18/88/44 22/89/59 23/90/62

usemtl M_345ED821_c
vt 0.49023 1.125
v 0.000168051 3.68511 -0.566563
vt 0.17481 0.62842
vn 0.00587402 0.0566954 -0.998374
vt 0.49023 0.62842
vn -0.871748 0.0634633 -0.485826
f 22/91/59 24/92/63 23/93/64

vt 0.49023 1.125
vn -0.663199 0.553714 -0.503555
vt 0.17481 1.125
vt 0.17481 0.62842
vn 0.00587402 0.0566954 -0.998374
f 22/94/65 21/95/56 24/96/66

vt 0.17481 1.125
vn 0.129599 0.548749 -0.825881
vt -0.19922 0.62842
vn 0.870826 0.0567522 -0.488305
vt 0.17481 0.62842
vn 0.00587402 0.0566954 -0.998374
f 21/97/67 10/98/68 24/99/69

vt -0.19922 1.125
vt -0.19922 0.62842
vt 0.17481 1.125
f 11/100/29 10/101/68 21/102/56

vt 0.17481 0.62842
vt -0.19922 0.62842
v 0.425646 3.07069 -0.23588
vt -0.19922 7.30249e-014
vn 0.771472 -0.0915175 -0.629647
f 24/103/63 10/104/68 25/105/70

vt -0.50977 7.88831e-014
vt -0.19922 5.85738e-014
vt -0.19922 0.62842
f 12/106/31 25/107/70 10/108/68

vt 0.174858 0.628388
vn 0.00587402 0.0566954 -0.998374
vt -0.199172 -3.23631e-005
v 0.000320312 3.07101 -0.519565
vt 0.174858 -3.18816e-005
vn -0.198652 -0.0911535 -0.975822
f 24/109/71 25/110/70 26/111/72

vt 0.174809 0.628291
vn 0.00587402 0.0566954 -0.998374
vt 0.174809 -0.000128743
vt 0.490229 0.628291
vn -0.871748 0.0634633 -0.485826
f 24/112/73 26/113/72 23/114/74

vt 0.49023 0.62842
vt 0.17481 -1.40152e-013
v -0.42508 3.07098 -0.23588
vt 0.49023 -1.5047e-013
vn -0.946686 -0.0959855 -0.307526
f 23/115/62 26/116/72 27/117/75

usemtl M_2479C1FD_c
vt 0.80078 0.62842
vt 0.49023 0.62842
vt 0.49023 1.07414e-014
f 16/118/39 23/119/64 27/120/75

vt 0.80078 0.62842
vt 0.80078 1.125
vt 0.49023 0.62842
f 16/121/41 18/122/44 23/123/74

vt 0.80078 0.62842
vt 0.49023 -4.73094e-014
vt 0.80078 -4.22995e-014
vn -0.771537 -0.0913114 0.629598
f 16/124/41 27/125/75 15/126/76

g Mesh3 Group4 Group1 Model

usemtl M_6589192F_c
v -0.188617 4.67724 0.0947159
vt -0.09375 0.43359
vn -0.801002 0.445049 0.400408
v 0.000327549 4.67718 0.236578
vt -0.09375 0.11523
vn 0.000173105 0.485688 0.874132
v 0.000346568 4.81895 0.00038725
vt 0.41602 0.2207
vn 0.00040263 1 7.43418e-005
f 28/127/77 29/128/78 30/129/79

vt 2.50027 1.00017
vn -0.801002 0.445049 0.400408
v 0.000201864 2.59837 0.000398117
vt 1.25019 0.000170204
vn -0.000284145 -1 1.63559e-005
vt 3.00027 1.00017
vn 0.000173105 0.485688 0.874132
f 28/130/80 31/131/81 29/132/82

vt 2.49936 0.999651
v -0.188621 4.67729 -0.0940249
vt 1.99936 0.999651
vn -0.800967 0.445138 -0.400381
vt 2.24934 -0.000349003
vn -0.000284145 -1 1.63559e-005
f 28/133/80 32/134/83 31/135/84

vt 0.45313 0.53516
vt -0.09375 0.43359
vt 0.41602 0.2207
vn 0.00040263 1 7.43418e-005
f 32/136/83 28/137/80 30/138/85

vt 0.45313 0.53516
vn -0.800967 0.445138 -0.400381
vt 0.41602 0.2207
vn 0.00040263 1 7.43418e-005
v 0.000388418 4.67714 -0.235895
vt 1 0.31836
vn 0.000272099 0.485735 -0.874106
f 32/139/86 30/140/87 33/141/88

vt 0.41602 0.2207
v 0.189337 4.67709 -0.0940332
vt 1 -1.01419e-013
vn 0.801226 0.444801 -0.400237
vt 1 0.31836
f 30/142/79 34/143/89 33/144/88

vt 0.41602 0.2207
vn 0.00040263 1 7.43418e-005
v 0.189338 4.67704 0.094706
vt 0.45313 -0.10156
vn 0.801211 0.444723 0.400353
vt 1 -1.73639e-013
f 30/145/90 35/146/91 34/147/89

vt -0.09375 0.11523
vt 0.45313 -0.10156
vt 0.41602 0.2207
vn 0.00040263 1 7.43418e-005
f 29/148/78 35/149/91 30/150/92

vt -0.00897115 1.00002
vn 0.000173105 0.485688 0.874132
vt 0.240836 2.16484e-005
vn -0.000284145 -1 1.63559e-005
vt 0.491029 1.00002
f 29/151/93 31/152/94 35/153/91

vt 0.491824 1.00019
vn 0.801211 0.444723 0.400353
vt 0.741528 0.000192187
vn -0.000284145 -1 1.63559e-005
vt 0.991824 1.00019
f 35/154/95 31/155/96 34/156/89

vt 1.49604 0.999929
vn 0.000272099 0.485735 -0.874106
vt 0.996042 0.999924
vt 1.24621 -7.38787e-005
vn -0.000284145 -1 1.63559e-005
f 33/157/97 34/158/89 31/159/98

vt 1.99705 1.00002
vn -0.800967 0.445138 -0.400381
vt 1.49705 1.00002
vn 0.000272099 0.485735 -0.874106
vt 1.74709 2.25008e-005
vn -0.000284145 -1 1.63559e-005
f 32/160/99 33/161/100 31/162/101

g Mesh4 Group5 Group1 Model

usemtl M_693554D2_c
v 0.614396 0.850303 0.331014
vt -0.5 0.38184
vn 0.768824 0.471575 0.431887
v 0.614095 0.850308 -0.330357
vt -0.1665 0.38184
vn 0.776226 0.441558 -0.449999
v 0.330741 1.79531 -0.188426
vt -0.1665 1
vn 0.902921 0.242885 -0.3546
f 36/163/102 37/164/103 38/165/104

v 0.944926 0.283455 0.567144
vt -0.5 -1.22707e-013
vn 0.873711 0.262281 0.40968
vt -0.1665 0.38184
vn 0.776226 0.441558 -0.449999
vt -0.5 0.38184
vn 0.768824 0.471575 0.431887
f 39/166/105 37/167/106 36/168/107

vt -0.5 2.04003e-014
v 0.945046 0.283417 -0.56654
vt -0.1665 2.51188e-014
vn 0.722745 0.317014 -0.614119
vt -0.1665 0.38184
f 39/169/105 40/170/108 37/171/106

usemtl M_27626C73_c
vt -0.478068 0.995693
v 0.94507 -0.00016218 -0.566634
vt -0.144575 -0.00462559
vn 0.88583 -0.352333 -0.301937
vt -0.144568 0.995374
vn 0.722745 0.317014 -0.614119
f 39/172/105 41/173/109 40/174/110

v 0.944817 9.6275e-005 0.567348
vt -0.478162 -0.00352808
vn 0.57105 -0.754404 0.323692
vt -0.144575 -0.00462548
vn 0.88583 -0.352333 -0.301937
vt -0.478068 0.995693
vn 0.873711 0.262281 0.40968
f 42/175/111 41/176/112 39/177/113

usemtl Material3
v 0.000254987 4.84978e-005 -1.1335
vt 1.49997 1.01343
vn 0.128992 -0.752716 -0.645585
vt 1.00007 2.02667
vn 0.88583 -0.352333 -0.301937
vt 7.2601e-005 2.02663
f 43/178/114 41/179/115 42/180/111

usemtl M_27626C73_c
vt -0.14453 0.999981
vt -0.14453 -1.90081e-005
vt 0.18896 -1.70392e-005
vn 0.128992 -0.752716 -0.645585
f 40/181/108 41/182/109 43/183/116

v 0.000231128 0.283627 -1.13341
vt 0.18896 0.999981
vn -0.178534 0.338868 -0.923739
vt -0.14453 0.999981
vn 0.722745 0.317014 -0.614119
vt 0.18896 -1.70392e-005
vn 0.128992 -0.752716 -0.645585
f 44/184/117 40/185/118 43/186/119

usemtl M_693554D2_c
v 0.00025779 0.850611 -0.661043
vt 0.1665 0.38184
vn -0.0243219 0.457089 -0.889089
vt -0.1665 8.03246e-014
vt 0.1665 7.81597e-014
f 45/187/120 40/188/108 44/189/117

vt 0.1665 0.38184
vn -0.0243219 0.457089 -0.889089
vt -0.1665 0.38184
vt -0.1665 1.93179e-014
f 45/190/121 37/191/103 40/192/108

v 0.000343363 1.79532 -0.424943
vt 0.1665 1
vn 0.108311 0.223092 -0.968761
vt -0.1665 0.38184
vn 0.776226 0.441558 -0.449999
vt 0.1665 0.38184
f 46/193/122 37/194/123 45/195/121

vt 0.1665 1
vt -0.1665 1
vn 0.902921 0.242885 -0.3546
vt -0.1665 0.38184
f 46/196/122 38/197/124 37/198/103

usemtl M_57CB6E40_c
v 0.000309873 4.7245 0.000456302
vt -0.249976 0.999982
vn 0.000445165 0.999999 0.00104225
vt 0.0737543 -1.81308e-005
vt 0.250024 -1.81385e-005
f 47/199/125 38/200/124 46/201/122

v 0.330967 1.79543 0.189507
vt -0.07373 1.74305e-014
vn 0.802439 0.221291 0.554186
vt 0.07373 1.64313e-014
vn 0.902921 0.242885 -0.3546
vt -0.25 1
vn 0.000445165 0.999999 0.00104225
f 48/202/126 38/203/127 47/204/128

usemtl M_693554D2_c
vt -0.5 0.38184
vt -0.1665 1
vn 0.902921 0.242885 -0.3546
vt -0.5 1
f 36/205/102 38/206/129 48/207/126

vt 1.5 1
v 4.69816e-005 0.85027 0.661576
vt 1.1665 0.38184
vn 0.0243924 0.457116 0.889073
vt 1.5 0.38184
vn 0.768824 0.471575 0.431887
f 48/208/126 49/209/130 36/210/131

vt 1.5 1
vn 0.802439 0.221291 0.554186
v 6.39231e-005 1.79517 0.425504
vt 1.1665 1
vn -0.108102 0.222894 0.96883
vt 1.1665 0.38184
f 48/211/132 50/212/133 49/213/130

usemtl M_57CB6E40_c
vt 0.750144 1.00006
vn 0.000445165 0.999999 0.00104225
vt 0.750136 5.8151e-005
vn -0.108102 0.222894 0.96883
vt 0.926406 5.73082e-005
vn 0.802439 0.221291 0.554186
f 47/214/134 50/215/135 48/216/136

vt 0.750342 0.999968
vn 0.000445165 0.999999 0.00104225
v -0.330462 1.7954 0.189285
vt 0.574064 -3.14441e-005
vn -0.902803 0.242921 0.354874
vt 0.750334 -3.22892e-005
vn -0.108102 0.222894 0.96883
f 47/217/137 51/218/138 50/219/139

vt 0.574288 -0.000140604
vn -0.902803 0.242921 0.354874
vt 0.750586 0.999861
vn 0.000445165 0.999999 0.00104225
v -0.330692 1.79528 -0.18865
vt 0.426829 -0.000137521
vn -0.802518 0.221435 -0.554014
f 51/220/140 47/221/141 52/222/142

vt -0.250991 1.00055
vn 0.000445165 0.999999 0.00104225
vt 0.248974 0.00055367
vn 0.108311 0.223092 -0.968761
vt 0.425246 0.000549986
f 47/223/143 46/224/144 52/225/142

usemtl M_693554D2_c
vt 0.1665 1
vt 0.1665 0.38184
vn -0.0243219 0.457089 -0.889089
vt 0.5 1
f 46/226/122 45/227/145 52/228/142

vt 0.5 1
vt 0.1665 0.38184
vn -0.0243219 0.457089 -0.889089
v -0.614089 0.850578 -0.330485
vt 0.5 0.38184
vn -0.768805 0.471568 -0.431929
f 52/229/142 45/230/146 53/231/147

vt 0.1665 0.38184
vn -0.0243219 0.457089 -0.889089
vt 0.1665 -4.54949e-014
vt 0.5 0.38184
vn -0.768805 0.471568 -0.431929
f 45/232/148 44/233/117 53/234/149

vt 0.5 0.38184
vn -0.768805 0.471568 -0.431929
vt 0.1665 1.11109e-013
v -0.944794 0.283549 -0.566393
vt 0.5 1.0587e-013
vn -0.90365 0.301181 -0.304478
f 53/235/150 44/236/117 54/237/151

usemtl M_27626C73_c
vt 0.188795 0.992679
v -0.94468 0.000297465 -0.566689
vt 0.521798 -0.0076065
vn -0.610148 -0.60131 -0.515894
vt 0.521859 0.99124
vn -0.90365 0.301181 -0.304478
f 44/238/117 55/239/152 54/240/153

vt 0.188795 0.992679
vt 0.188788 -0.00732088
vn 0.128992 -0.752716 -0.645585
vt 0.521798 -0.0076064
vn -0.610148 -0.60131 -0.515894
f 44/241/117 43/242/154 55/243/155

usemtl Material3
vt 1.00013 0.000299747
vt 1.49997 1.01343
v 1.50131e-005 0.000125078 1.13386
vt -0.499507 1.01364
vn 1.05442e-005 -0.658385 0.752681
f 55/244/152 43/245/119 56/246/156

vt -0.499507 1.01364
vn 1.05442e-005 -0.658385 0.752681
vt 1.49997 1.01343
vt 7.26198e-005 2.02663
vn 0.57105 -0.754404 0.323692
f 56/247/157 43/248/119 42/249/158

usemtl M_27626C73_c
vt -0.478224 1.00859
vt -0.811234 0.00900823
vn 1.05442e-005 -0.658385 0.752681
vt -0.478314 0.00936179
f 39/250/113 56/251/159 42/252/111

v -8.84593e-006 0.283704 1.13396
vt -0.811224 1.00901
vn 0.0931288 0.407499 0.908445
vt -0.811234 0.00900801
vn 1.05442e-005 -0.658385 0.752681
vt -0.478224 1.00859
vn 0.873711 0.262281 0.40968
f 57/253/160 56/254/161 39/255/162

vt 1.18896 1
vn 0.0931288 0.407499 0.908445
v -0.944914 0.283588 0.56729
vt 0.85547 1
vn -0.722656 0.316914 0.614276
vt 1.18896 -5.28904e-013
vn 1.05442e-005 -0.658385 0.752681
f 57/256/163 58/257/164 56/258/165

usemtl M_693554D2_c
vt 1.1665 0.38184
vt 0.8335 5.66214e-014
vn -0.722656 0.316914 0.614276
vt 1.1665 5.22915e-014
vn 0.0931288 0.407499 0.908445
f 49/259/130 58/260/166 57/261/167

v -0.613793 0.850571 0.330886
vt 0.8335 0.38184
vn -0.776064 0.44162 0.450218
vt 0.8335 2.56462e-014
vt 1.1665 0.38184
vn 0.0243924 0.457116 0.889073
f 59/262/168 58/263/166 49/264/169

vt 0.8335 -8.30447e-014
vt 0.8335 0.38184
vt 0.5 -8.83182e-014
vn -0.90365 0.301181 -0.304478
f 58/265/166 59/266/168 54/267/170

vt 0.8335 0.38184
vt 0.5 0.38184
vn -0.768805 0.471568 -0.431929
vt 0.5 1.56819e-013
f 59/268/168 53/269/171 54/270/170

vt 0.8335 0.38184
vt 0.8335 1
vt 0.5 0.38184
f 59/271/168 51/272/140 53/273/171

vt 0.8335 1
vt 0.8335 0.38184
vn -0.776064 0.44162 0.450218
vt 1.1665 1
f 51/274/138 59/275/172 50/276/133

vt 1.1665 1
vt 0.8335 0.38184
vt 1.1665 0.38184
vn 0.0243924 0.457116 0.889073
f 50/277/133 59/278/172 49/279/173

vt 0.8335 1
vt 0.5 1
vt 0.5 0.38184
f 51/280/140 52/281/142 53/282/171

usemtl M_27626C73_c
vt 0.855422 1.00397
vn -0.722656 0.316914 0.614276
vt 0.521981 1.00303
vn -0.90365 0.301181 -0.304478
v -0.94489 8.7162e-006 0.567197
vt 0.855418 0.00397064
vn -0.885721 -0.352596 0.30195
f 58/283/174 54/284/175 60/285/176

vt 0.855418 0.00397064
vt 0.521981 1.00303
vt 0.521918 0.00418641
f 60/286/176 54/287/170 55/288/152

usemtl Material3
vt 0.000210562 0.000307402
vn -0.885721 -0.352596 0.30195
vt 1.00013 0.000299829
vt -0.499507 1.01364
vn 1.05442e-005 -0.658385 0.752681
f 60/289/177 55/290/155 56/291/178

usemtl M_27626C73_c
vt 0.85547 1
vt 0.85547 -5.06874e-013
vt 1.18896 -5.28936e-013
f 58/292/174 60/293/177 56/294/165

usemtl M_693554D2_c
vt 1.5 0.38184
vt 1.1665 0.38184
vn 0.0243924 0.457116 0.889073
vt 1.1665 -5.19029e-014
vn 0.0931288 0.407499 0.908445
f 36/295/131 49/296/179 57/297/180

vt 1.5 0.38184
vn 0.768824 0.471575 0.431887
vt 1.1665 -6.31717e-014
vt 1.5 -6.10068e-014
vn 0.873711 0.262281 0.40968
f 36/298/181 57/299/163 39/300/182

