# Alias OBJ Model File
# Exported from SketchUp, (c) 2000-2012 Trimble Navigation Limited
# File units = inches

mtllib RookB.mtl

g Mesh1 Group2 Group1 Model

usemtl F0C0DC7_c
v 0.566761 3.16547 0.330964
vt 1.5 0.19727
vn 0.766794 -0.510513 0.389106
v -0.000217682 2.97634 0.425461
vt 1.16699 -3.68039e-014
vn 0.0513149 -0.95297 0.298688
v 0.330459 2.97629 0.189007
vt 1.5 -7.74381e-015
vn 0.342294 -0.933787 0.104293
f 1/1/1 2/2/2 3/3/3

vt 1.5 0.19727
vn 0.766794 -0.510513 0.389106
v -0.000207635 3.16517 0.661585
vt 1.16699 0.19727
vn 0.0194932 -0.494338 0.869051
vt 1.16699 3.35704e-013
vn 0.0513149 -0.95297 0.298688
f 1/4/4 4/5/5 2/6/6

v 0.613809 3.87401 0.378126
vt 1.5 1
vn 0.54083 0.638392 0.547685
vt 1.16699 0.19727
vn 0.0194932 -0.494338 0.869051
vt 1.5 0.19727
f 5/7/7 4/8/8 1/9/4

v -0.000181481 3.87405 0.708848
vt 1.16699 1
vn -0.197835 0.636721 0.745284
vt 1.16699 0.19727
vn 0.0194932 -0.494338 0.869051
vt 1.5 1
vn 0.54083 0.638392 0.547685
f 6/10/9 4/11/10 5/12/11

vt 1.16699 1
v -0.567075 3.16541 0.330895
vt 0.83301 0.19727
vn -0.718019 -0.52091 0.461629
vt 1.16699 0.19727
vn 0.0194932 -0.494338 0.869051
f 6/13/9 7/14/12 4/15/13

v -0.61447 3.87407 0.378199
vt 0.83301 1
vn -0.741742 0.638492 0.205296
vt 0.83301 0.19727
vn -0.718019 -0.52091 0.461629
vt 1.16699 1
f 8/16/14 7/17/15 6/18/9

v -0.567014 3.16541 -0.330318
vt 0.5 0.19727
vn -0.766877 -0.510494 -0.388968
vt 0.83301 0.19727
vt 0.83301 1
vn -0.741742 0.638492 0.205296
f 9/19/16 7/20/12 8/21/17

v -0.330841 2.97645 -0.18899
vt 0.5 1.34864e-013
vn -0.342314 -0.933778 -0.104305
vt 0.83301 0.19727
vn -0.718019 -0.52091 0.461629
vt 0.5 0.19727
vn -0.766877 -0.510494 -0.388968
f 10/22/18 7/23/19 9/24/20

v -0.330833 2.97643 0.189443
vt 0.83301 7.53286e-014
vn -0.361754 -0.883702 0.296993
vt 0.83301 0.19727
vt 0.5 7.11653e-014
vn -0.342314 -0.933778 -0.104305
f 11/25/21 7/26/19 10/27/22

vt 1.16699 0.19727
vt 0.83301 0.19727
vn -0.718019 -0.52091 0.461629
vt 0.83301 4.09117e-014
f 4/28/10 7/29/23 11/30/21

vt 1.16699 0.19727
vn 0.0194932 -0.494338 0.869051
vt 0.83301 5.87252e-013
vt 1.16699 5.42899e-013
f 4/31/24 11/32/21 2/33/6

usemtl M_7AD72BD7_c
vt -0.00549451 -0.00950802
vn 0.0513149 -0.95297 0.298688
vt 1.45023e-015 -0.0126846
vt 0.00549451 -0.00950802
vn -0.342314 -0.933778 -0.104305
f 2/34/25 11/35/21 10/36/26

vt -0.00544695 -0.00953373
vn 0.0513149 -0.95297 0.298688
vt 0.00554439 -0.00952742
v -0.000297139 2.97618 -0.425147
vt 0.00554045 -0.00319978
vn -0.0514719 -0.952903 -0.298877
f 2/37/27 10/38/26 12/39/28

usemtl F0C0DC7_c
vt 0.16699 2.0095e-013
vt 0.5 2.1555e-013
vn -0.342314 -0.933778 -0.104305
vt 0.5 0.19727
f 12/40/28 10/41/29 9/42/20

vt 0.16699 9.75331e-014
vt 0.5 0.19727
vn -0.766877 -0.510494 -0.388968
v -0.000317824 3.16538 -0.661296
vt 0.16699 0.19727
vn -0.0194379 -0.494133 -0.869169
f 12/43/28 9/44/30 13/45/31

v -0.61448 3.87399 -0.377711
vt 0.5 1
vn -0.5412 0.63816 -0.547589
vt 0.16699 0.19727
vn -0.0194379 -0.494133 -0.869169
vt 0.5 0.19727
vn -0.766877 -0.510494 -0.388968
f 14/46/32 13/47/33 9/48/34

v 4.29775e-007 3.87418 -0.70857
vt 0.16699 1
vn 0.198105 0.636747 -0.74519
vt 0.16699 0.19727
vn -0.0194379 -0.494133 -0.869169
vt 0.5 1
f 15/49/35 13/50/36 14/51/32

vt 0.16699 1
vn 0.198105 0.636747 -0.74519
v 0.566818 3.16547 -0.330245
vt -0.16699 0.19727
vn 0.71814 -0.520824 -0.461537
vt 0.16699 0.19727
f 15/52/37 16/53/38 13/54/36

vt 0.16699 1
vn 0.198105 0.636747 -0.74519
v 0.614157 3.87393 -0.377622
vt -0.16699 1
vn 0.741759 0.63854 -0.205086
vt -0.16699 0.19727
f 15/55/39 17/56/40 16/57/38

usemtl M_5D61A6B3_c
vt -6.9722e-014 0.25
vt 0.5 -2.73115e-014
v -9.14682e-005 3.59081 0.000181421
vt 0.5 0.50293
vn -4.04016e-005 1 -2.74616e-005
f 17/58/40 15/59/35 18/60/41

vt 0.5 1.77636e-015
vn 0.198105 0.636747 -0.74519
vt 1 0.25
vn -0.5412 0.63816 -0.547589
vt 0.5 0.50293
f 15/61/42 14/62/43 18/63/41

vt 0.5 0.50293
vt 1 0.25
vt 1 0.75
f 18/64/41 14/65/43 8/66/17

usemtl F0C0DC7_c
vt 0.5 1
vt 0.5 0.19727
vt 0.83301 1
f 14/67/43 9/68/16 8/69/17

usemtl M_5D61A6B3_c
vt 0.5 0.50293
vn -4.04016e-005 1 -2.74616e-005
vt 1 0.75
vn -0.741742 0.638492 0.205296
vt 0.5 1
f 18/70/44 8/71/45 6/72/9

vt -4.4853e-014 0.75
vt 0.5 0.50293
vn -4.04016e-005 1 -2.74616e-005
vt 0.5 1
f 5/73/11 18/74/46 6/75/9

vt -6.57252e-014 0.25
vn 0.741759 0.63854 -0.205086
vt 0.5 0.50293
vn -4.04016e-005 1 -2.74616e-005
vt -7.32747e-014 0.75
vn 0.54083 0.638392 0.547685
f 17/76/47 18/77/48 5/78/49

usemtl F0C0DC7_c
vt -0.16699 1
vn 0.741759 0.63854 -0.205086
vt -0.5 1
vt -0.5 0.19727
f 17/79/50 5/80/11 1/81/1

vt -0.16699 1
vt -0.5 0.19727
vn 0.766794 -0.510513 0.389106
vt -0.16699 0.19727
vn 0.71814 -0.520824 -0.461537
f 17/82/40 1/83/51 16/84/52

vt -0.16699 0.19727
vt -0.5 0.19727
vn 0.766794 -0.510513 0.389106
vt -0.5 2.7145e-014
vn 0.342294 -0.933787 0.104293
f 16/85/52 1/86/53 3/87/54

vt -0.16699 0.19727
vt -0.5 -7.99361e-015
v 0.33059 2.97641 -0.18877
vt -0.16699 1.16573e-015
vn 0.362227 -0.883423 -0.297246
f 16/88/38 3/89/54 19/90/55

usemtl M_7AD72BD7_c
vt -1.10502e-015 3.21965e-015
vn 0.362227 -0.883423 -0.297246
vt -0.00549451 -0.00317648
vt 0.00549451 -0.00317648
f 19/91/56 3/92/54 12/93/28

vt -0.00544827 -0.00320203
vt -0.00544695 -0.00953373
vt 0.00554045 -0.00319978
vn -0.0514719 -0.952903 -0.298877
f 3/94/54 2/95/6 12/96/57

usemtl F0C0DC7_c
vt -0.16699 -4.65072e-013
vn 0.362227 -0.883423 -0.297246
vt 0.16699 -4.77174e-013
vn -0.0514719 -0.952903 -0.298877
vt 0.16699 0.19727
vn -0.0194379 -0.494133 -0.869169
f 19/97/58 12/98/59 13/99/60

vt -0.16699 0.19727
vt -0.16699 2.81997e-014
vt 0.16699 0.19727
f 16/100/38 19/101/58 13/102/36

g Mesh2 Group3 Group1 Model

usemtl M_693554D2_c
v -0.000152767 0.944918 0.661776
vt 0.01123 1
vn -0.000153224 0.369964 0.929046
v -3.09425e-005 0.236094 1.13393
vt 0.01123 2.67106e-013
vn 0.12208 0.235509 0.964174
v 0.944905 0.236339 0.567118
vt 0.17773 2.68764e-013
vn 0.86158 0.321002 0.393239
f 20/103/61 21/104/62 22/105/63

vt 0.01123 1
vn -0.000153224 0.369964 0.929046
v -0.944936 0.23621 0.567266
vt -0.15576 -1.20792e-013
vn -0.780893 0.320572 0.536134
vt 0.01123 -7.9603e-014
f 20/106/64 23/107/65 21/108/62

vt 0.01123 1
vn -0.000153224 0.369964 0.929046
v -0.56693 0.944834 0.330884
vt -0.15576 1
vn -0.810856 0.356969 0.463773
vt -0.15576 1.45439e-013
f 20/109/66 24/110/67 23/111/65

usemtl M_69894DA4_c
v -0.283372 3.02351 0.141884
vt 0.85547 1
vn -0.847504 0.167119 0.503793
vt 0.85547 3.88578e-015
vt 1.18896 4.21885e-015
vn -0.000153224 0.369964 0.929046
f 25/112/68 24/113/67 20/114/69

v -0.56687 0.944831 -0.330329
vt 0.52197 2.498e-014
vn -0.806594 0.361032 -0.46804
vt 0.85547 1.65978e-014
vn -0.810856 0.356969 0.463773
vt 0.85547 1
f 26/115/70 24/116/71 25/117/68

usemtl M_693554D2_c
vt 0.67773 1
vn -0.806594 0.361032 -0.46804
vt 0.84424 4.69791e-013
vt 0.84424 1
vn -0.810856 0.356969 0.463773
f 26/118/72 23/119/65 24/120/73

v -0.944593 0.236143 -0.566916
vt 0.67773 4.04787e-013
vn -0.855122 0.188006 -0.483136
vt 0.84424 3.68428e-013
vn -0.780893 0.320572 0.536134
vt 0.67773 1
vn -0.806594 0.361032 -0.46804
f 27/121/74 23/122/75 26/123/76

usemtl M_27626C73_c
vt 0.522081 0.985036
vn -0.855122 0.188006 -0.483136
v -0.9448 -8.4947e-005 0.566996
vt 0.855735 -0.0139573
vn -0.885662 -0.352783 0.301905
vt 0.855727 0.986043
f 27/124/77 28/125/78 23/126/75

vt 0.522081 0.985036
v -0.944679 -4.4129e-005 -0.566691
vt 0.522235 -0.0145045
vn -0.571109 -0.754459 -0.32346
vt 0.855735 -0.0139573
f 27/127/77 29/128/79 28/129/78

vt 0.522031 0.993349
v -0.000103525 0.000204489 -1.13367
vt 0.188927 -0.00481039
vn -7.35062e-005 -0.503482 -0.864006
vt 0.522017 -0.00665098
vn -0.571109 -0.754459 -0.32346
f 27/130/74 30/131/80 29/132/81

v -0.000150808 0.236171 -1.13359
vt 0.189021 0.994257
vn -0.00017155 0.38694 -0.922105
vt 0.188927 -0.00481039
vn -7.35062e-005 -0.503482 -0.864006
vt 0.522031 0.993349
f 31/133/82 30/134/83 27/135/74

v 0.945025 0.236381 -0.566564
vt -0.144205 0.977541
vn 0.785842 0.22482 -0.576114
vt 0.189258 -0.0222614
vt 0.189285 0.976347
f 32/136/84 30/137/83 31/138/82

vt -0.144205 0.977541
vn 0.785842 0.22482 -0.576114
v 0.94516 8.59488e-005 -0.566834
vt -0.144224 -0.0224587
vn 0.756346 -0.601205 -0.257865
vt 0.189258 -0.0222614
f 32/139/85 33/140/86 30/141/83

vt -0.144743 -0.0108751
vn 0.756346 -0.601205 -0.257865
vt -0.144735 0.989125
vn 0.785842 0.22482 -0.576114
vt -0.478235 0.989677
f 33/142/87 32/143/88 22/144/63

usemtl M_693554D2_c
vt 0.34424 -1.38778e-013
v 0.567095 0.945105 -0.330553
vt 0.34424 1
vn 0.806436 0.361176 -0.468202
vt 0.17773 -9.82547e-014
f 32/145/88 34/146/89 22/147/63

vt 0.34424 1
vn 0.806436 0.361176 -0.468202
vt 0.34424 7.61613e-014
vn 0.785842 0.22482 -0.576114
vt 0.51123 8.9484e-014
vn -0.00017155 0.38694 -0.922105
f 34/148/90 32/149/91 31/150/92

vt 0.34424 1
vt 0.51123 1.88738e-014
vn -0.00017155 0.38694 -0.922105
v -0.000173386 0.944801 -0.661306
vt 0.51123 1
vn -0.000428043 0.378006 -0.925803
f 34/151/90 31/152/93 35/153/94

vt 0.67773 1
vn -0.806594 0.361032 -0.46804
vt 0.51123 1
vn -0.000428043 0.378006 -0.925803
vt 0.51123 1.91736e-013
vn -0.00017155 0.38694 -0.922105
f 26/154/95 35/155/96 31/156/97

usemtl M_69894DA4_c
v -7.85007e-005 3.02374 -0.283363
vt 0.18896 1
vn -0.000380607 0.167861 -0.985811
vt 0.18896 -1.22125e-014
vt 0.52197 -1.73195e-014
vn -0.806594 0.361032 -0.46804
f 36/157/98 35/158/96 26/159/99

vt 0.18896 1
vt -0.14453 7.16094e-015
vn 0.806436 0.361176 -0.468202
vt 0.18896 1.50435e-014
vn -0.000428043 0.378006 -0.925803
f 36/160/98 34/161/100 35/162/101

vt 0.18896 1
v 0.283316 3.02369 -0.141646
vt -0.14453 1
vn 0.839667 0.161755 -0.518453
vt -0.14453 1.11022e-015
vn 0.806436 0.361176 -0.468202
f 36/163/98 37/164/102 34/165/103

vt -0.14453 3.88578e-016
vt -0.14453 1
v 0.283253 3.02359 0.142093
vt -0.47803 1
vn 0.847359 0.167229 0.504001
f 34/166/90 37/167/102 38/168/104

vt -0.14453 6.71685e-015
vt -0.47803 1
v 0.566904 0.944891 0.330956
vt -0.47803 1.83742e-014
vn 0.810656 0.356946 0.46414
f 34/169/103 38/170/104 39/171/105

vt -0.47803 1
vn 0.847359 0.167229 0.504001
vt -0.81103 5.55112e-017
vn -0.000153224 0.369964 0.929046
vt -0.47803 1.43219e-014
f 38/172/106 20/173/107 39/174/105

v -6.88829e-005 3.02377 0.283806
vt -0.81103 1
vn -0.0003235 0.178883 0.98387
vt -0.81103 1.16573e-015
vn -0.000153224 0.369964 0.929046
vt -0.47803 1
f 40/175/108 20/176/109 38/177/106

vt 1.18896 1
vt 0.85547 1
vt 1.18896 -8.88178e-016
vn -0.000153224 0.369964 0.929046
f 40/178/108 25/179/68 20/180/110

usemtl M_693554D2_c
vt 0.01123 1
vt 0.17773 -2.76685e-013
vt 0.17773 1
f 20/181/64 22/182/63 39/183/105

vt 0.34424 1
vt 0.17773 1
vn 0.810656 0.356946 0.46414
vt 0.17773 -2.45692e-013
f 34/184/103 39/185/111 22/186/63

usemtl M_69894DA4_c
vt 0.18896 1
vt 0.52197 7.38298e-015
vn -0.806594 0.361032 -0.46804
v -0.283533 3.02371 -0.141349
vt 0.52197 1
vn -0.839994 0.161572 -0.517982
f 36/187/98 26/188/112 41/189/113

vt 0.52197 1.40443e-014
vn -0.806594 0.361032 -0.46804
vt 0.85547 1
vt 0.52197 1
f 26/190/114 25/191/68 41/192/113

usemtl M_693554D2_c
vt 0.67773 1
vt 0.51123 2.95985e-013
vn -0.00017155 0.38694 -0.922105
vt 0.67773 3.12528e-013
f 26/193/112 31/194/115 27/195/74

usemtl M_27626C73_c
vt -0.144743 -0.0108747
vn 0.756346 -0.601205 -0.257865
vt -0.478235 0.989678
vn 0.86158 0.321002 0.393239
v 0.944818 0.000153554 0.567348
vt -0.47839 -0.0098587
vn 0.714648 -0.352224 0.604331
f 33/196/116 22/197/117 42/198/118

vt -0.478142 0.997452
vt -0.811224 0.995618
vt -0.478128 -0.00254849
vn 0.714648 -0.352224 0.604331
f 22/199/63 21/200/62 42/201/119

vt -0.811224 0.995618
v 1.50131e-005 0.000125078 1.13386
vt -0.811128 -0.00346365
vn -0.107436 -0.836298 0.537645
vt -0.478128 -0.00254849
f 21/202/62 43/203/120 42/204/119

vt 0.855082 0.972261
vn -0.780893 0.320572 0.536134
vt 1.18859 -0.0265264
vt 1.18856 0.972092
f 23/205/121 43/206/120 21/207/62

vt 0.855082 0.972262
vt 0.855101 -0.0277384
vt 1.18859 -0.026526
f 23/208/75 28/209/78 43/210/120

usemtl Material3
vt 1.4994 0.994851
vt 0.99953 1.99003
vn -0.885662 -0.352783 0.301905
vt -3.26146e-005 1.99026
f 43/211/120 28/212/122 29/213/81

vt 1.4994 0.994851
vn -0.107436 -0.836298 0.537645
vt -3.26147e-005 1.99026
vt -0.499863 0.995688
vn -7.35062e-005 -0.503482 -0.864006
f 43/214/123 29/215/81 30/216/124

vt -2.59212e-005 3.25317e-005
vn 0.756346 -0.601205 -0.257865
vt 1.4994 0.994851
vt -0.499863 0.995688
vn -7.35062e-005 -0.503482 -0.864006
f 33/217/125 43/218/123 30/219/126

vt -2.59379e-005 3.25675e-005
vt 0.999974 3.73654e-005
vn 0.714648 -0.352224 0.604331
vt 1.4994 0.994851
f 33/220/116 42/221/127 43/222/120

