# Alias OBJ Model File
# Exported from SketchUp, (c) 2000-2012 Trimble Navigation Limited
# File units = inches

mtllib QueenW.mtl

g Mesh1 Group2 Group1 Model

usemtl M_6589192F_c
v -0.000207609 5.48067 0.236341
vt 0.4375 -0.23828
vn 0.000360305 0.260403 0.9655
v -0.000269995 5.66933 0.000289314
vt 0.58984 0.38086
vn -8.59397e-005 1 0.000137795
v -0.2365 5.48028 0.141766
vt 0.02734 0.11328
vn -0.787493 0.292132 0.542691
f 1/1/1 2/2/2 3/3/3

v 0.235905 5.48037 0.141615
vt 1 0.0293
vn 0.787973 0.29242 0.541839
vt 0.58984 0.38086
vn -8.59397e-005 1 0.000137795
vt 0.4375 -0.23828
f 4/4/4 2/5/5 1/6/1

vt 1 0.0293
vn 0.787973 0.29242 0.541839
v 0.235745 5.48056 -0.14162
vt 1.15039 0.64844
vn 0.787138 0.292737 -0.54288
vt 0.58984 0.38086
vn -8.59397e-005 1 0.000137795
f 4/7/6 5/8/7 2/9/8

vt 2.02344 -0.76563
vt 1.44531 -0.76563
v -0.000111874 4.91348 4.11139e-005
vt 1.73438 9.20236e-014
vn 0.000194364 -1 -0.000372488
f 5/10/7 4/11/4 6/12/9

vt 0.869601 -0.76564
vn 0.000360305 0.260403 0.9655
vt 1.1587 -1.2931e-005
vn 0.000194364 -1 -0.000372488
vt 1.44772 -0.765648
f 1/13/10 6/14/11 4/15/4

vt 0.87005 -0.765847
vn 0.000360305 0.260403 0.9655
vt 0.291919 -0.765839
vn -0.787493 0.292132 0.542691
vt 0.581025 -0.000214498
vn 0.000194364 -1 -0.000372488
f 1/16/12 3/17/13 6/18/14

v -0.23666 5.48048 -0.141469
vt -0.28906 -0.76563
vn -0.787805 0.292513 -0.542033
vt 2.20879e-013 -1.77927e-013
vn 0.000194364 -1 -0.000372488
vt 0.28906 -0.76563
vn -0.787493 0.292132 0.542691
f 7/19/15 6/20/16 3/21/17

v -0.000637278 5.4805 -0.235994
vt 2.5936 -0.765319
vn -0.000511687 0.260688 -0.965423
vt 2.8827 0.000307621
vn 0.000194364 -1 -0.000372488
vt 3.17172 -0.765329
vn -0.787805 0.292513 -0.542033
f 8/22/18 6/23/19 7/24/20

vt 2.01523 -0.764709
vn 0.787138 0.292737 -0.54288
vt 2.30433 0.00091473
vt 2.5914 -0.764719
f 5/25/21 6/26/11 8/27/18

vt 1.15039 0.64844
vt 0.74023 1
vt 0.58984 0.38086
vn -8.59397e-005 1 0.000137795
f 5/28/7 8/29/18 2/30/22

vt 0.58984 0.38086
vn -8.59397e-005 1 0.000137795
vt 0.74023 1
vt 0.17773 0.73242
vn -0.787805 0.292513 -0.542033
f 2/31/23 8/32/18 7/33/24

vt 0.58984 0.38086
vn -8.59397e-005 1 0.000137795
vt 0.17773 0.73242
vn -0.787805 0.292513 -0.542033
vt 0.02734 0.11328
vn -0.787493 0.292132 0.542691
f 2/34/25 7/35/26 3/36/27

g Mesh2 Group3 Group1 Model

usemtl M_3533C282_c
v 0.613805 4.77206 -0.37793
vt -0.16699 0.5
vn 0.901187 -0.12642 -0.414584
v 0.377839 3.87429 0.236368
vt -0.5 2.73948e-014
vn 0.899223 -0.288333 0.329031
v 0.377899 3.87434 -0.236105
vt -0.16699 2.37588e-014
vn 0.713162 -0.31179 -0.627843
f 9/37/28 10/38/29 11/39/30

vt -0.16699 0.5
v 0.613772 4.7716 0.378078
vt -0.5 0.5
vn 0.790226 -0.185587 0.584038
vt -0.5 1.58207e-014
vn 0.899223 -0.288333 0.329031
f 9/40/28 12/41/31 10/42/32

vt -0.167002 0.50053
v 0.61376 5.14963 0.378051
vt -0.500059 0.999784
vn 0.80818 0.380347 0.449645
vt -0.500055 0.499784
f 9/43/28 13/44/33 12/45/31

vt -0.167002 0.50053
v 0.61375 5.14955 -0.377859
vt -0.167049 0.999806
vn 0.71924 0.56887 -0.398849
vt -0.500059 0.999784
vn 0.80818 0.380347 0.449645
f 9/46/28 14/47/34 13/48/35

v -0.000257864 5.1497 -0.755597
vt 0.168184 0.998467
vn 0.137464 0.466622 -0.873709
vt -0.165782 0.998316
vn 0.71924 0.56887 -0.398849
vt -0.165847 0.498748
f 15/49/36 14/50/37 9/51/28

usemtl M_38A528A6_c
vt 0.000150665 0.249753
vt 0.500146 -0.000253825
v -0.000196506 5.48042 0.000150989
vt 0.500158 0.502675
vn 0.000102456 1 3.85537e-005
f 14/52/37 15/53/36 16/54/38

vt 0.500315 0.502641
vn 0.000102456 1 3.85537e-005
vt 0.500303 -0.000289569
v -0.614527 5.1496 -0.377786
vt 1.00031 0.249704
vn -0.709748 0.45496 -0.537838
f 16/55/39 15/56/36 17/57/40

usemtl M_3533C282_c
vt 0.16691 1.00119
v -0.000112811 4.77188 -0.755869
vt 0.166777 0.501482
vn -0.0181688 -0.170822 -0.985134
vt 0.499797 1.00143
vn -0.709748 0.45496 -0.537838
f 15/58/36 18/59/41 17/60/42

vt 0.168184 0.998467
vt -0.165847 0.498748
vt 0.168133 0.498467
vn -0.0181688 -0.170822 -0.985134
f 15/61/36 9/62/28 18/63/43

vt -0.16699 0.5
vt -0.16699 1.87073e-014
vt 0.16699 0.5
vn -0.0181688 -0.170822 -0.985134
f 9/64/28 11/65/30 18/66/44

vt 0.166311 0.50026
vn -0.0181688 -0.170822 -0.985134
vt -0.167662 0.000257123
v -0.000287527 3.87431 -0.425297
vt 0.166318 0.000259001
vn -0.186762 -0.317209 -0.929784
f 18/67/45 11/68/30 19/69/46

vt 0.166964 0.49985
vt 0.166964 -0.000149762
v -0.614514 4.77157 -0.377761
vt 0.499974 0.49985
vn -0.857439 -0.155855 -0.490416
f 18/70/43 19/71/46 20/72/47

vt 0.5 0.5
vn -0.857439 -0.155855 -0.490416
vt 0.16699 -5.68989e-015
vn -0.186762 -0.317209 -0.929784
v -0.378377 3.87393 -0.236248
vt 0.5 -6.52256e-015
vn -0.899237 -0.288566 -0.32879
f 20/73/48 19/74/49 21/75/50

vt 0.5 0.5
vt 0.5 2.40086e-014
v -0.614504 4.77165 0.37815
vt 0.83301 0.5
vn -0.906759 -0.176606 0.382882
f 20/76/48 21/77/50 22/78/51

vt 0.5 3.2821e-015
v -0.37808 3.87389 0.236384
vt 0.83301 1.73472e-015
vn -0.712666 -0.312287 0.628159
vt 0.83301 0.5
f 21/79/50 23/80/52 22/81/51

v -0.00058614 4.77183 0.756089
vt 1.16699 0.5
vn -0.0720429 -0.146484 0.986586
vt 0.83301 0.5
vn -0.906759 -0.176606 0.382882
vt 0.83301 4.09534e-014
vn -0.712666 -0.312287 0.628159
f 24/82/53 22/83/54 23/84/55

v -0.614516 5.14968 0.378122
vt 0.833916 0.996281
vn -0.808184 0.380402 0.449591
vt 0.833893 0.496281
vt 1.16789 0.496577
vn -0.0720429 -0.146484 0.986586
f 25/85/56 22/86/54 24/87/57

vt 0.5 0.499999
vt 0.833011 0.500003
vt 0.83301 0.999999
f 20/88/48 22/89/54 25/90/56

vt 0.5 0.999999
vt 0.5 0.499999
vt 0.83301 0.999999
f 17/91/42 20/92/48 25/93/56

vt 0.499797 1.00143
vn -0.709748 0.45496 -0.537838
vt 0.166777 0.501482
vn -0.0181688 -0.170822 -0.985134
vt 0.499787 0.501427
f 17/94/58 18/95/59 20/96/48

usemtl M_38A528A6_c
vt 0.5 0.50293
vn 0.000102456 1 3.85537e-005
vt 1 0.25
vn -0.709748 0.45496 -0.537838
vt 1 0.75
f 16/97/60 17/98/61 25/99/56

vt 0.500109 0.502959
vn 0.000102456 1 3.85537e-005
vt 1.00011 0.750027
v -0.000507679 5.14954 0.755859
vt 0.500112 1.00003
vn 8.35391e-006 0.5827 0.812687
f 16/100/62 25/101/56 26/102/63

usemtl M_3533C282_c
vt 0.833916 0.996281
vt 1.16789 0.496577
vn -0.0720429 -0.146484 0.986586
vt 1.1679 0.996152
vn 8.35391e-006 0.5827 0.812687
f 25/103/56 24/104/64 26/105/65

vt 1.50052 0.999093
vt 1.16759 0.998756
vn 8.35391e-006 0.5827 0.812687
vt 1.16749 0.499186
f 13/106/33 26/107/66 24/108/53

usemtl M_38A528A6_c
vt 7.95786e-005 0.749933
vt 0.500078 0.502861
vt 0.500081 0.999931
f 13/109/35 16/110/39 26/111/66

vt -2.13052e-013 0.75
vt -2.39031e-013 0.25
vt 0.5 0.50293
vn 0.000102456 1 3.85537e-005
f 13/112/33 14/113/34 16/114/67

usemtl M_3533C282_c
vt 1.50052 0.999093
vt 1.16749 0.499186
vt 1.5005 0.499093
vn 0.790226 -0.185587 0.584038
f 13/115/33 24/116/53 12/117/68

vt 1.16699 0.499997
vn -0.0720429 -0.146484 0.986586
v -0.000118212 3.87414 0.425112
vt 1.16699 -2.842e-006
vn 0.18696 -0.317454 0.929661
vt 1.5 0.499997
f 24/118/69 27/119/70 12/120/68

vt 1.16698 0.500002
vn -0.0720429 -0.146484 0.986586
vt 0.833001 1.4909e-006
vt 1.16698 1.53315e-006
f 24/121/71 23/122/55 27/123/70

vt 1.5 0.5
vn 0.790226 -0.185587 0.584038
vt 1.16699 -1.65536e-015
vn 0.18696 -0.317454 0.929661
vt 1.5 -8.85576e-016
f 12/124/72 27/125/73 10/126/32

g Mesh3 Group4 Group1 Model

usemtl DD4B6F7_c
v -0.425193 1.60629 -0.236291
vt 0.5 1
vn -0.714128 0.460573 -0.527156
v 7.82006e-005 1.27569 -0.755803
vt 0.1665 0.38184
vn 0.0177358 0.531287 -0.847006
v -0.661571 1.27593 -0.378051
vt 0.5 0.38184
vn -0.735752 0.519109 -0.434965
f 28/127/74 29/128/75 30/129/76

vt 0.5 1
vn -0.714128 0.460573 -0.527156
v 6.6324e-005 1.60624 -0.472229
vt 0.1665 1
vn 0.0929503 0.458573 -0.883782
vt 0.1665 0.38184
vn 0.0177358 0.531287 -0.847006
f 28/130/77 31/131/78 29/132/79

usemtl M_40A69A0D_c
v -0.000196506 5.48042 0.000150989
vt -0.250269 1.00008
vn 0.00163757 0.999999 -0.000472103
vt 0.249767 7.75254e-005
vn 0.0929503 0.458573 -0.883782
vt 0.426035 8.0602e-005
f 32/133/80 31/134/81 28/135/77

vt -0.248598 0.999952
vn 0.00163757 0.999999 -0.000472103
v 0.425037 1.60636 -0.236152
vt 0.07511 -4.74541e-005
vn 0.811484 0.455476 -0.366108
vt 0.251381 -4.93167e-005
vn 0.0929503 0.458573 -0.883782
f 32/136/82 33/137/83 31/138/84

vt 0.0737351 5.65012e-005
vn 0.811484 0.455476 -0.366108
vt -0.249994 1.00006
vn 0.00163757 0.999999 -0.000472103
v 0.424979 1.60632 0.236318
vt -0.0737249 5.65711e-005
vn 0.714545 0.460247 0.526875
f 33/139/85 32/140/86 34/141/87

vt 0.750382 1.00011
vn 0.00163757 0.999999 -0.000472103
v 7.94136e-005 1.60637 0.472417
vt 0.75041 0.000110353
vn -0.0924975 0.458319 0.883961
vt 0.926679 0.000112793
vn 0.714545 0.460247 0.526875
f 32/142/88 35/143/89 34/144/90

vt 0.749095 1.0002
vn 0.00163757 0.999999 -0.000472103
v -0.425343 1.60658 0.236383
vt 0.572778 0.000205914
vn -0.811468 0.45534 0.366314
vt 0.749047 0.000201715
vn -0.0924975 0.458319 0.883961
f 32/145/91 36/146/92 35/147/93

vt 0.426181 8.78633e-006
vn -0.714128 0.460573 -0.527156
vt 0.57364 7.07028e-006
vn -0.811468 0.45534 0.366314
vt 0.749928 1.00001
vn 0.00163757 0.999999 -0.000472103
f 28/148/94 36/149/95 32/150/96

usemtl DD4B6F7_c
vt 0.5 0.38184
vn -0.735752 0.519109 -0.434965
vt 0.8335 1
vt 0.5 1
f 30/151/97 36/152/92 28/153/77

vt 0.5 0.38184
vn -0.735752 0.519109 -0.434965
v -0.661604 1.27546 0.377956
vt 0.8335 0.38184
vn -0.747971 0.514792 0.418962
vt 0.8335 1
f 30/154/98 37/155/99 36/156/92

v -0.945115 0.425375 -0.566739
vt 0.5 -1.85962e-015
vn -0.894654 0.160765 -0.416831
vt 0.8335 0.38184
vn -0.747971 0.514792 0.418962
vt 0.5 0.38184
f 38/157/100 37/158/101 30/159/98

vt 0.5 3.06977e-014
vn -0.894654 0.160765 -0.416831
v -0.944875 0.425336 0.567105
vt 0.8335 2.42029e-014
vn -0.747998 0.192264 0.635243
vt 0.8335 0.38184
f 38/160/102 39/161/103 37/162/101

usemtl M_3B81B743_c
vt 0.52197 1
v -0.9448 -8.4947e-005 0.566996
vt 0.85547 7.30089e-014
vn -0.755982 -0.601618 0.257965
vt 0.85547 1
f 38/163/100 40/164/104 39/165/103

v -0.94504 -4.63533e-005 -0.566848
vt 0.52197 8.42515e-014
vn -0.754456 -0.498292 -0.427202
vt 0.85547 7.30151e-014
vt 0.52197 1
vn -0.894654 0.160765 -0.416831
f 41/166/105 40/167/104 38/168/106

usemtl Material3
v -0.000104224 0.000201308 -1.13366
vt -0.49993 0.999069
vn -0.12889 -0.752798 -0.645509
vt 1 1.99853
vn -0.755982 -0.601618 0.257965
vt 6.16024e-007 1.99853
f 42/169/107 40/170/108 41/171/105

v 1.50131e-005 0.000125078 1.13386
vt 1.49993 0.999448
vn -0.12892 -0.752873 0.645416
vt 1 1.99853
vn -0.755982 -0.601618 0.257965
vt -0.49993 0.999069
f 43/172/109 40/173/110 42/174/107

usemtl M_3B81B743_c
vt 0.855467 0.999961
vn -0.747998 0.192264 0.635243
vt 0.855467 -3.90591e-005
vt 1.18896 -3.36934e-005
f 39/175/111 40/176/104 43/177/109

v -5.9462e-005 0.425543 1.13397
vt 1.18896 0.999959
vn 0.188678 0.203446 0.960734
vt 0.855467 0.999961
vt 1.18896 -3.36934e-005
vn -0.12892 -0.752873 0.645416
f 44/178/112 39/179/111 43/180/113

usemtl DD4B6F7_c
v -0.000261982 1.27586 0.755855
vt 1.1665 0.38184
vn -0.017495 0.531231 0.847046
vt 0.8335 2.50078e-014
vt 1.1665 2.86715e-014
vn 0.188678 0.203446 0.960734
f 45/181/114 39/182/111 44/183/115

vt 1.1665 0.38184
vn -0.017495 0.531231 0.847046
vt 0.8335 0.38184
vn -0.747971 0.514792 0.418962
vt 0.8335 -2.30926e-014
f 45/184/116 37/185/117 39/186/103

vt 1.1665 1
vn -0.0924975 0.458319 0.883961
vt 0.8335 0.38184
vn -0.747971 0.514792 0.418962
vt 1.1665 0.38184
f 35/187/118 37/188/119 45/189/116

vt 0.8335 1
vt 0.8335 0.38184
vt 1.1665 1
f 36/190/92 37/191/119 35/192/118

vt 1.1665 1
vt 1.1665 0.38184
vn -0.017495 0.531231 0.847046
vt 1.5 1
f 35/193/93 45/194/120 34/195/90

vt 1.5 1
vn 0.714545 0.460247 0.526875
vt 1.1665 0.38184
v 0.661388 1.27562 0.378099
vt 1.5 0.38184
vn 0.735764 0.519162 0.434882
f 34/196/121 45/197/116 46/198/122

vt 1.1665 0.38184
vn -0.017495 0.531231 0.847046
vt 1.1665 7.42184e-014
vn 0.188678 0.203446 0.960734
vt 1.5 0.38184
vn 0.735764 0.519162 0.434882
f 45/199/123 44/200/124 46/201/125

vt 1.5 0.38184
vt 1.1665 2.73948e-014
vn 0.188678 0.203446 0.960734
v 0.944964 0.425469 0.566958
vt 1.5 2.65898e-014
vn 0.930513 0.184986 0.31611
f 46/202/122 44/203/126 47/204/127

usemtl M_3B81B743_c
vt -0.810893 0.998552
v 0.944951 0.000370455 0.567048
vt -0.477957 -0.000903513
vn 0.714825 -0.352278 0.60409
vt -0.477893 0.998345
f 44/205/126 48/206/128 47/207/127

vt -0.810893 0.998552
vt -0.810904 -0.00144786
vt -0.477957 -0.000903513
f 44/208/115 43/209/113 48/210/128

usemtl Material3
vt 1 -1.19018e-005
vn 0.714825 -0.352278 0.60409
vt 1.49993 0.999448
v 0.94471 0.000412312 -0.566794
vt 2.6669e-007 -1.03743e-005
vn 0.754482 -0.498216 -0.427244
f 48/211/129 43/212/113 49/213/130

vt 2.66695e-007 -1.03743e-005
vt 1.49993 0.999448
vt -0.49993 0.999069
vn -0.12889 -0.752798 -0.645509
f 49/214/130 43/215/109 42/216/131

usemtl M_3B81B743_c
v -9.02929e-005 0.425297 -1.13375
vt 0.188961 0.999992
vn 0.00959538 0.20698 -0.978298
vt -0.144529 -6.70846e-006
vt 0.188961 -8.31898e-006
f 50/217/132 49/218/130 42/219/131

v 0.944724 0.425507 -0.566886
vt -0.144529 0.999991
vn 0.786979 0.232945 -0.571314
vt -0.144529 -6.70847e-006
vn 0.754482 -0.498216 -0.427244
vt 0.188961 0.999992
vn 0.00959538 0.20698 -0.978298
f 51/220/133 49/221/134 50/222/135

vt -0.144529 0.999996
vn 0.786979 0.232945 -0.571314
vt -0.47803 1
vt -0.14453 3.38934e-006
f 51/223/136 47/224/127 49/225/130

usemtl DD4B6F7_c
vt -0.1665 -6.245e-015
v 0.661288 1.27586 -0.377608
vt -0.1665 0.38184
vn 0.747909 0.515079 -0.418719
vt -0.5 -4.53804e-015
vn 0.930513 0.184986 0.31611
f 51/226/133 52/227/137 47/228/138

vt -0.1665 0.38184
vn 0.747909 0.515079 -0.418719
vt -0.1665 -5.60663e-015
vt 0.1665 0.38184
f 52/229/139 51/230/133 29/231/79

vt 0.1665 0.38184
vn 0.0177358 0.531287 -0.847006
vt -0.1665 -1.249e-015
vt 0.1665 3.60822e-016
vn 0.00959538 0.20698 -0.978298
f 29/232/140 51/233/133 50/234/141

vt 0.5 0.38184
vn -0.735752 0.519109 -0.434965
vt 0.1665 0.38184
vt 0.1665 -4.57689e-014
vn 0.00959538 0.20698 -0.978298
f 30/235/142 29/236/75 50/237/143

vt 0.5 0.38184
vt 0.1665 -1.07067e-014
vt 0.5 -8.20871e-015
f 30/238/98 50/239/141 38/240/100

usemtl M_3B81B743_c
vt 0.521864 0.999191
vt 0.188854 0.99898
vn 0.00959538 0.20698 -0.978298
vt 0.188919 -0.000254883
f 38/241/100 50/242/144 42/243/107

vt 0.521864 0.999191
vt 0.188919 -0.000254883
vt 0.521875 -0.000808668
f 38/244/100 42/245/107 41/246/105

usemtl DD4B6F7_c
vt 0.1665 1
vn 0.0929503 0.458573 -0.883782
vt -0.1665 0.38184
vn 0.747909 0.515079 -0.418719
vt 0.1665 0.38184
vn 0.0177358 0.531287 -0.847006
f 31/247/145 52/248/146 29/249/147

vt -0.1665 1
vt -0.1665 0.38184
vt 0.1665 1
f 33/250/83 52/251/137 31/252/84

vt -0.1665 0.38184
vn 0.747909 0.515079 -0.418719
vt -0.1665 1
vt -0.5 0.38184
f 52/253/148 33/254/85 46/255/125

vt -0.1665 1
vt -0.5 1
vt -0.5 0.38184
f 33/256/85 34/257/90 46/258/125

vt -0.1665 0.38184
vt -0.5 0.38184
vt -0.5 3.60822e-015
f 52/259/137 46/260/125 47/261/127

usemtl M_3B81B743_c
vt -0.14453 3.38934e-006
vt -0.47803 1
vt -0.47803 3.97537e-006
f 49/262/134 47/263/127 48/264/129

g Mesh4 Group5 Group1 Model

usemtl M_28ABDC6B_c
v 8.12129e-006 3.44897 -2.12141e-005
vt 0.5 0.50293
vn 0.000209919 -1 4.64172e-005
v -0.756026 3.73222 0.425129
vt 1 0.75
vn -0.873777 -0.0598904 0.482625
v -0.756196 3.73239 -0.425278
vt 1 0.25
vn -0.873896 -0.0598787 -0.482411
f 53/265/149 54/266/150 55/267/151

vt 0.499989 0.502932
vn 0.000209919 -1 4.64172e-005
v -0.000169726 3.73258 0.897585
vt 0.499989 1
vn -1.40373e-005 -0.0614801 0.998108
vt 0.999989 0.750003
vn -0.873777 -0.0598904 0.482625
f 53/268/152 56/269/153 54/270/154

v 0.755764 3.73248 0.425192
vt -9.26028e-006 0.750007
vn 0.873906 -0.059608 0.482427
vt 0.49999 1.00001
vt 0.499991 0.502938
f 57/271/155 56/272/153 53/273/152

usemtl M_65D796C7_c
vt 0.00032207 0.749935
v -0.000114533 4.11036 0.000160694
vt 0.500303 0.502842
vn -0.000125079 1 1.09686e-005
vt 0.500338 0.999914
vn -1.40373e-005 -0.0614801 0.998108
f 57/274/155 58/275/156 56/276/157

vt 0.000143267 0.750012
v 0.755596 3.73265 -0.425215
vt 0.000144115 0.250012
vn 0.873855 -0.0595849 -0.482522
vt 0.500144 0.502943
vn -0.000125079 1 1.09686e-005
f 57/277/155 59/278/158 58/279/159

usemtl M_28ABDC6B_c
vt 8.92619e-014 0.75
vt 0.5 0.50293
vn 0.000209919 -1 4.64172e-005
vt 1.07914e-013 0.25
f 57/280/155 53/281/160 59/282/158

vt 1.37465e-007 0.25
vt 0.5 0.50293
vn 0.000209919 -1 4.64172e-005
v -0.000261963 3.73229 -0.897671
vt 0.5 1.09659e-008
vn 0.000158481 -0.0614467 -0.99811
f 59/283/158 53/284/161 60/285/162

vt 0.5 0.50293
vn 0.000209919 -1 4.64172e-005
vt 1 0.25
vn -0.873896 -0.0598787 -0.482411
vt 0.5 -1.20445e-007
vn 0.000158481 -0.0614467 -0.99811
f 53/286/163 55/287/164 60/288/165

usemtl M_65D796C7_c
vt 0.500364 0.502791
vt 0.500325 -0.000140667
vt 1.00034 0.249835
f 58/289/156 60/290/162 55/291/164

vt -0.000517179 0.250285
vn 0.873855 -0.0595849 -0.482522
vt 0.499497 0.000304789
vn 0.000158481 -0.0614467 -0.99811
vt 0.499466 0.503236
vn -0.000125079 1 1.09686e-005
f 59/292/166 60/293/167 58/294/168

vt 0.499442 0.502951
vn -0.000125079 1 1.09686e-005
vt 0.999443 0.250022
vn -0.873896 -0.0598787 -0.482411
vt 0.999442 0.750022
f 58/295/169 55/296/170 54/297/150

vt 0.499643 0.503634
vn -0.000125079 1 1.09686e-005
vt 0.999623 0.750728
vn -0.873777 -0.0598904 0.482625
vt 0.499607 1.00071
f 58/298/171 54/299/172 56/300/157

