# Alias OBJ Model File
# Exported from SketchUp, (c) 2000-2012 Trimble Navigation Limited
# File units = inches

mtllib KnightB.mtl

g Mesh1 Group2 Group1 Model

usemtl M_7AD72BD7_c
v -0.519685 1.37023 0.330605
vt 0.010989 0.010989
vn -0.780319 -0.422114 0.461435
v -0.519493 1.37002 -0.330904
vt 0.00549451 0.010989
vn -0.780183 -0.422022 -0.461749
v 0.000331166 0.0472545 -0.000253167
vt 0.00824176 -8.6064e-016
vn -7.68857e-005 -1 -7.58368e-005
f 1/1/1 2/2/2 3/3/3

v 0.000130834 1.37006 -0.614234
vt 0.0329585 0.010992
vn -1.46643e-005 -0.421011 -0.907056
vt 0.0357062 3.04256e-006
vn -7.68857e-005 -1 -7.58368e-005
vt 0.038453 0.0109921
f 4/4/4 3/5/5 2/6/2

v 0.519985 1.37018 -0.33089
vt 0.0274716 0.0109912
vn 0.780351 -0.421891 -0.461585
vt 0.0302192 2.23354e-006
vn -7.68857e-005 -1 -7.58368e-005
vt 0.0329661 0.0109913
f 5/7/6 3/8/7 4/9/4

v 0.519703 1.37006 0.33082
vt 0.021978 0.010989
vn 0.780214 -0.421912 0.461797
vt 0.0247253 1.50249e-015
vn -7.68857e-005 -1 -7.58368e-005
vt 0.0274725 0.010989
f 6/10/8 3/11/9 5/12/6

vt 0.0219791 0.0109888
v 7.97614e-005 1.37002 0.614149
vt 0.0164846 0.0109888
vn -0.000135552 -0.421259 0.906941
vt 0.0192319 -2.39712e-007
f 6/13/8 7/14/10 3/15/7

vt 0.0109896 0.0109889
vt 0.013737 -6.11729e-008
vt 0.0164841 0.010989
f 1/16/1 3/17/5 7/18/10

g Mesh2 Group3 Group1 Model

usemtl M_103748DC_c
v 0.000232162 1.60653 0.944863
vt 0.5 0.08496
vn -0.0143406 0.0494858 0.998672
v 9.78048e-005 1.32271 0.85027
vt 0.5 -1.98772e-013
vn -0.00768504 -0.796953 0.603993
v 0.661634 1.60614 0.661552
vt 0.96973 0.08496
vn 0.696439 0.124067 0.70681
f 8/19/11 9/20/12 10/21/13

vt 0.5 0.08496
v -0.613844 1.60641 0.661163
vt 0.03027 0.08496
vn -0.710237 0.123403 0.693062
vt 0.5 -3.8608e-014
vn -0.00768504 -0.796953 0.603993
f 8/22/11 11/23/14 9/24/15

v 0.000197395 2.45671 0.566611
vt 0.5 0.33203
vn -0.0110155 0.435666 0.900041
vt 0.03027 0.08496
vt 0.5 0.08496
vn -0.0143406 0.0494858 0.998672
f 12/25/16 11/26/14 8/27/17

v -0.424907 3.40168 -0.0474814
vt 0.16699 0.60254
vn -0.991116 0.0331263 0.128813
vt 0.03027 0.08496
vt 0.5 0.33203
f 13/28/18 11/29/14 12/30/16

usemtl HorseB
vt 0.84277 0.08643
vt 0.47852 0.59815
v -0.519505 2.03163 -0.330782
vt 0.34375 0.20264
vn -0.914954 0.14173 -0.377852
f 11/31/14 13/32/18 14/33/19

vt 0.47852 0.59815
vn -0.991116 0.0331263 0.128813
v -0.330343 3.21272 -0.897737
vt 0.03809 0.54785
vn -0.649579 0.0311691 -0.759655
vt 0.34375 0.20264
f 13/34/20 15/35/21 14/36/19

vt 0.47852 0.59815
vn -0.991116 0.0331263 0.128813
v -0.424916 4.39364 -0.28349
vt 0.3623 0.88281
vn -0.878049 0.31981 -0.356022
vt 0.03809 0.54785
vn -0.649579 0.0311691 -0.759655
f 13/37/22 16/38/23 15/39/24

v -0.424748 4.34632 0.283317
vt 0.63867 0.87109
vn -0.794396 0.234493 0.56031
vt 0.3623 0.88281
vn -0.878049 0.31981 -0.356022
vt 0.47852 0.59815
f 17/40/25 16/41/26 13/42/22

v -0.377381 4.77174 0.283466
vt 0.65332 0.99853
vn -0.354682 0.917258 0.181212
vt 0.3623 0.88281
vt 0.63867 0.87109
f 18/43/27 16/44/23 17/45/25

usemtl M_565B4AA5_c
vt 0.84766 0.9082
vt 1 0.66943
vn -0.354682 0.917258 0.181212
v 0.000554683 4.39359 -0.472477
vt 0.46777 0.91504
vn -0.0204737 0.721497 -0.692115
f 16/46/23 18/47/28 19/48/29

vt 1 0.66943
vn -0.354682 0.917258 0.181212
v 0.0476222 4.48829 0.283261
vt 0.63965 0.68994
vn -0.00826556 0.669071 0.743152
vt 0.46777 0.91504
f 18/49/30 20/50/31 19/51/29

usemtl M_7B6FD4E_c
vt 0.19727 1.00781
vt 0.18066 0.87891
vn -0.794396 0.234493 0.56031
vt 0.50293 0.92139
vn -0.00826556 0.669071 0.743152
f 18/52/30 17/53/32 20/54/33

vt 0.50293 0.92139
vn -0.00826556 0.669071 0.743152
vt 0.18066 0.87891
v 0.000501548 4.01573 0.70843
vt 0.5 0.77832
vn -0.0116734 0.470641 0.882248
f 20/55/34 17/56/25 21/57/35

vt 0.18066 0.87891
v -0.330375 3.21285 0.850367
vt 0.25391 0.55176
vn -0.747279 -0.0662467 0.6612
vt 0.5 0.77832
vn -0.0116734 0.470641 0.882248
f 17/58/25 22/59/36 21/60/37

usemtl HorseB
vt 0.94336 0.54785
vn -0.747279 -0.0662467 0.6612
vt 0.63867 0.87109
vt 0.47852 0.59815
vn -0.991116 0.0331263 0.128813
f 22/61/38 17/62/32 13/63/39

vt 0.94336 0.54785
vn -0.747279 -0.0662467 0.6612
vt 0.47852 0.59815
vn -0.991116 0.0331263 0.128813
v -0.283071 2.74027 0.566932
vt 0.7793 0.41748
vn -0.562491 -0.819593 -0.108955
f 22/64/40 13/65/41 23/66/42

usemtl M_103748DC_c
vt 0.16699 0.60254
v 0.472746 3.40139 -0.0473832
vt 0.83887 0.60254
vn 0.984826 -0.142704 -0.0987543
vt 0.26465 0.41992
f 13/67/20 24/68/43 23/69/42

vt 0.16699 0.60254
vt 0.5 0.33203
vt 0.83887 0.60254
vn 0.984826 -0.142704 -0.0987543
f 13/70/39 12/71/16 24/72/44

vt 0.83887 0.60254
vn 0.984826 -0.142704 -0.0987543
vt 0.5 0.33203
vn -0.0110155 0.435666 0.900041
vt 0.96973 0.08496
vn 0.696439 0.124067 0.70681
f 24/73/45 12/74/46 10/75/47

vt 0.5 0.33203
vn -0.0110155 0.435666 0.900041
vt 0.5 0.08496
vn -0.0143406 0.0494858 0.998672
vt 0.96973 0.08496
vn 0.696439 0.124067 0.70681
f 12/76/48 8/77/49 10/78/50

usemtl HorseB
vt 0.8418 0.08643
v 0.567307 2.03124 -0.33061
vt 0.34277 0.20264
vn 0.912694 0.141697 -0.383291
vt 0.47852 0.59766
vn 0.984826 -0.142704 -0.0987543
f 10/79/47 25/80/51 24/81/52

vt 0.8418 0.0864299
vn 0.696439 0.124067 0.70681
v 0.708959 1.32277 0.614267
vt 0.80469 0.00243998
vn 0.887719 -0.288391 0.358867
vt 0.34277 0.20264
f 10/82/53 26/83/54 25/84/51

usemtl M_103748DC_c
vt 0.96973 0.08496
vn 0.696439 0.124067 0.70681
vt 0.5 -7.4718e-014
vn -0.00768504 -0.796953 0.603993
vt 1 -7.21992e-014
f 10/85/55 9/86/56 26/87/54

usemtl M_3E46298F_c
vt 1.19727 0.51758
vn -0.00768504 -0.796953 0.603993
v 0.708862 1.32276 -0.756066
vt -2.32592e-014 -4.39475e-014
vn 0.58408 -0.362551 -0.726228
vt 1 -3.97964e-014
f 9/88/57 27/89/58 26/90/54

vt 1.19727 0.51758
vn -0.00768504 -0.796953 0.603993
v 0.000208483 1.3227 -0.850584
vt -0.08008 0.51563
vn -0.00411351 -0.542251 -0.840207
vt 3.63433e-009 -1.3662e-008
vn 0.58408 -0.362551 -0.726228
f 9/91/59 28/92/60 27/93/61

v -0.661284 1.32281 -0.75581
vt -0.00194995 1.03125
vn -0.593879 -0.361104 -0.718965
vt -0.08008 0.51563
vn -0.00411351 -0.542251 -0.840207
vt 1.19727 0.51758
vn -0.00768504 -0.796953 0.603993
f 29/94/62 28/95/63 9/96/64

usemtl M_565B4AA5_c
v 0.000321254 2.03137 -0.519714
vt 0.5 0.20215
vn -0.0113855 0.065947 -0.997758
vt 0.5 3.3697e-014
vt 1 3.29814e-014
vn -0.593879 -0.361104 -0.718965
f 30/97/65 28/98/60 29/99/66

vt 0.5 0.20215
vn -0.0113855 0.065947 -0.997758
vt -9.46083e-014 3.81639e-017
vt 0.5 1.91167e-015
vn -0.00411351 -0.542251 -0.840207
f 30/100/67 27/101/61 28/102/68

vt 0.5 0.20215
vn -0.0113855 0.065947 -0.997758
vt 0.0908199 0.20215
vt -8.08728e-014 -6.04031e-015
f 30/103/69 25/104/51 27/105/61

v 0.37815 3.21253 -0.897715
vt 0.23828 0.55029
vn 0.632361 0.0321803 -0.774005
vt 0.0908199 0.20215
vt 0.5 0.20215
vn -0.0113855 0.065947 -0.997758
f 31/106/70 25/107/51 30/108/71

usemtl HorseB
vt 0.47852 0.59766
vt 0.34277 0.20264
vt 0.03809 0.54785
vn 0.632361 0.0321803 -0.774005
f 24/109/52 25/110/51 31/111/72

vt 0.47852 0.59766
vn 0.984826 -0.142704 -0.0987543
vt 0.03809 0.54785
vn 0.632361 0.0321803 -0.774005
v 0.472826 4.39367 -0.283591
vt 0.36133 0.88281
vn 0.873017 0.32554 -0.363133
f 24/112/73 31/113/74 32/114/75

usemtl M_565B4AA5_c
vt 0.18066 0.88818
vn 0.873017 0.32554 -0.363133
vt 0.23828 0.55029
vn 0.632361 0.0321803 -0.774005
vt 0.49805 0.88818
vn -0.0204737 0.721497 -0.692115
f 32/115/76 31/116/77 19/117/78

vt 0.49805 0.88818
vn -0.0204737 0.721497 -0.692115
vt 0.23828 0.55029
vn 0.632361 0.0321803 -0.774005
v 0.000455101 3.25988 -0.992177
vt 0.49902 0.55957
vn -0.0167613 0.0264966 -0.999508
f 19/118/79 31/119/80 33/120/81

vt 0.49902 0.55957
vn -0.0167613 0.0264966 -0.999508
vt 0.23828 0.55029
vn 0.632361 0.0321803 -0.774005
vt 0.5 0.20215
vn -0.0113855 0.065947 -0.997758
f 33/121/82 31/122/83 30/123/84

vt 0.49902 0.55957
vn -0.0167613 0.0264966 -0.999508
vt 0.5 0.20215
vn -0.0113855 0.065947 -0.997758
vt 0.75977 0.55029
vn -0.649579 0.0311691 -0.759655
f 33/124/85 30/125/86 15/126/87

vt 0.75977 0.55029
vt 0.5 0.20215
vn -0.0113855 0.065947 -0.997758
vt 0.90918 0.20215
vn -0.914954 0.14173 -0.377852
f 15/127/24 30/128/88 14/129/89

vt 0.90918 0.20215
vt 0.5 0.20215
vn -0.0113855 0.065947 -0.997758
vt 1 -2.70409e-014
vn -0.593879 -0.361104 -0.718965
f 14/130/89 30/131/90 29/132/91

usemtl HorseB
v -0.660963 1.32293 0.614019
vt 0.80566 0.00292998
vn -0.890654 -0.285084 0.354206
vt 0.34375 0.20264
vt 0.12891 0.00292998
f 34/133/92 14/134/19 29/135/66

vt 0.84277 0.08643
vn -0.710237 0.123403 0.693062
vt 0.34375 0.20264
vt 0.80566 0.00292999
f 11/136/93 14/137/89 34/138/92

usemtl M_103748DC_c
vt 0.03027 0.08496
vt 7.32747e-014 1.57721e-014
vt 0.5 1.28925e-014
vn -0.00768504 -0.796953 0.603993
f 11/139/14 34/140/92 9/141/94

usemtl M_3E46298F_c
vt -0.00194997 1.03125
vt 1.19727 0.51758
vn -0.00768504 -0.796953 0.603993
vt 0.99805 1.0332
vn -0.890654 -0.285084 0.354206
f 29/142/66 9/143/95 34/144/96

usemtl M_565B4AA5_c
vt 0.49805 0.88818
vn -0.0204737 0.721497 -0.692115
vt 0.49902 0.55957
vt 0.75977 0.55029
vn -0.649579 0.0311691 -0.759655
f 19/145/97 33/146/85 15/147/98

vt 0.81641 0.88818
vt 0.49805 0.88818
vt 0.75977 0.55029
vn -0.649579 0.0311691 -0.759655
f 16/148/23 19/149/79 15/150/99

vt 0.46777 0.91504
vn -0.0204737 0.721497 -0.692115
v 0.425557 4.77167 0.283346
vt 0.35156 0.58789
vn 0.322476 0.920304 0.22147
vt 0.16797 0.82324
f 19/151/100 35/152/101 32/153/76

vt 0.46777 0.91504
vt 0.63965 0.68994
vn -0.00826556 0.669071 0.743152
vt 0.35156 0.58789
vn 0.322476 0.920304 0.22147
f 19/154/29 20/155/102 35/156/103

usemtl M_7B6FD4E_c
vt 0.80273 1.00488
vn 0.322476 0.920304 0.22147
vt 0.50293 0.92139
v 0.472862 4.34658 0.283513
vt 0.81934 0.87891
vn 0.788808 0.232329 0.569038
f 35/157/104 20/158/33 36/159/105

vt 0.50293 0.92139
vt 0.5 0.77832
vt 0.81934 0.87891
f 20/160/34 21/161/37 36/162/105

vt 0.81934 0.87891
vt 0.5 0.77832
vn -0.0116734 0.470641 0.882248
v 0.378119 3.21266 0.850389
vt 0.74609 0.55176
vn 0.722177 -0.0516959 0.689774
f 36/163/105 21/164/106 37/165/107

vt 0.5 0.77832
v 0.000405134 3.11824 0.992116
vt 0.5 0.52051
vn -0.0232411 -0.0272194 0.999359
vt 0.74609 0.55176
vn 0.722177 -0.0516959 0.689774
f 21/166/37 38/167/108 37/168/109

vt 0.5 0.77832
vn -0.0116734 0.470641 0.882248
vt 0.25391 0.55176
vt 0.5 0.52051
f 21/169/110 22/170/38 38/171/108

vt 0.25391 0.55176
v 0.000332997 2.8818 0.89739
vt 0.5 0.45508
vn -0.00225367 -0.649754 0.760141
vt 0.5 0.52051
f 22/172/36 39/173/111 38/174/108

vt 0.25391 0.55176
vn -0.747279 -0.0662467 0.6612
vt 0.26465 0.41992
vt 0.5 0.45508
vn -0.00225367 -0.649754 0.760141
f 22/175/112 23/176/42 39/177/113

vt 0.26465 0.41992
vn -0.562491 -0.819593 -0.108955
v 0.000390931 2.69277 0.519751
vt 0.5 0.39453
vn 0.0407596 -0.979417 -0.197691
vt 0.5 0.45508
vn -0.00225367 -0.649754 0.760141
f 23/178/114 40/179/115 39/180/116

usemtl M_103748DC_c
vt 0.83887 0.60254
vt 0.5 0.39453
vn 0.0407596 -0.979417 -0.197691
vt 0.26465 0.41992
vn -0.562491 -0.819593 -0.108955
f 24/181/73 40/182/117 23/183/118

vt 0.5 0.39453
vn 0.0407596 -0.979417 -0.197691
vt 0.83887 0.60254
vn 0.984826 -0.142704 -0.0987543
v 0.378109 2.78715 0.566765
vt 0.75977 0.42334
vn 0.657944 -0.725832 0.200691
f 40/184/119 24/185/120 41/186/121

usemtl HorseB
vt 0.94238 0.54785
vn 0.722177 -0.0516959 0.689774
vt 0.77832 0.4209
vn 0.657944 -0.725832 0.200691
vt 0.47852 0.59766
f 37/187/122 41/188/123 24/189/45

usemtl M_7B6FD4E_c
vt 0.74609 0.55176
vn 0.722177 -0.0516959 0.689774
vt 0.5 0.45508
vn -0.00225367 -0.649754 0.760141
vt 0.75977 0.42334
vn 0.657944 -0.725832 0.200691
f 37/190/124 39/191/125 41/192/126

vt 0.74609 0.55176
vt 0.5 0.52051
vt 0.5 0.45508
vn -0.00225367 -0.649754 0.760141
f 37/193/122 38/194/108 39/195/127

vt 0.5 0.45508
vn -0.00225367 -0.649754 0.760141
vt 0.5 0.39453
vt 0.75977 0.42334
vn 0.657944 -0.725832 0.200691
f 39/196/128 40/197/119 41/198/129

usemtl HorseB
vt 0.94238 0.54785
vt 0.47852 0.59766
vt 0.6377 0.87109
f 37/199/124 24/200/45 36/201/105

vt 0.6377 0.87109
vn 0.788808 0.232329 0.569038
vt 0.47852 0.59766
vn 0.984826 -0.142704 -0.0987543
vt 0.36133 0.88281
f 36/202/130 24/203/131 32/204/76

vt 0.6377 0.87109
vt 0.36133 0.88281
vn 0.873017 0.32554 -0.363133
vt 0.65625 0.99609
f 36/205/105 32/206/132 35/207/104

vt 0.80469 0.00243997
vt 0.12793 0.00243997
vt 0.34277 0.20264
f 26/208/54 27/209/61 25/210/51

g Mesh3 Group4 Group1 Model

usemtl M_69894DA4_c
v 0.945059 0.283234 0.566844
vt -0.53613 1.57457e-013
vn 0.859176 0.307821 0.408733
v 0.94482 0.283195 -0.567
vt -0.20264 1.52989e-013
vn 0.729055 0.429518 -0.53291
v 0.378237 1.03956 -0.236171
vt -0.2041 1
vn 0.713349 0.649572 -0.263037
f 42/211/133 43/212/134 44/213/135

usemtl M_27626C73_c
vt -0.486277 1.00423
v 0.944801 0.000163455 -0.566997
vt -0.152773 0.00444853
vn 0.836343 -0.276108 -0.473597
vt -0.152836 1.0033
vn 0.729055 0.429518 -0.53291
f 42/214/133 45/215/136 43/216/137

v 0.944951 -0.00012499 0.567049
vt -0.486273 0.00423253
vn 0.571321 -0.754344 0.323354
vt -0.152773 0.00444858
vn 0.836343 -0.276108 -0.473597
vt -0.486277 1.00423
vn 0.859176 0.307821 0.408733
f 46/217/138 45/218/139 42/219/140

usemtl Material3
v 2.87386e-005 -0.000172745 -1.13396
vt 1.00168 -0.499356
vn 4.09657e-005 -0.919069 -0.394097
vt 0.00203504 0.000952308
vn 0.836343 -0.276108 -0.473597
vt 0.0016081 1.00156
f 47/220/141 45/221/142 46/222/138

usemtl M_27626C73_c
v 4.87956e-006 0.283406 -1.13387
vt 0.180106 1.00399
vn -0.060545 0.323906 -0.94415
vt -0.152902 0.00391472
vt 0.180108 0.00399416
vn 4.09657e-005 -0.919069 -0.394097
f 48/223/143 45/224/142 47/225/144

vt 0.180106 1.00399
vn -0.060545 0.323906 -0.94415
vt -0.1529 1.00199
vn 0.729055 0.429518 -0.53291
vt -0.152902 0.00391465
f 48/226/145 43/227/146 45/228/139

usemtl M_69894DA4_c
v 0.000409618 1.03959 -0.425198
vt 0.131296 0.999549
vn 0.149215 0.658877 -0.737303
vt -0.202694 -0.000450328
vt 0.130316 -0.000450937
vn -0.060545 0.323906 -0.94415
f 49/229/147 43/230/146 48/231/148

vt 0.13135 1
vn 0.149215 0.658877 -0.737303
vt -0.2041 1
vt -0.20264 3.09752e-014
f 49/232/149 44/233/135 43/234/134

vt 0.131742 1.00046
vt 0.130795 0.000444894
vn -0.060545 0.323906 -0.94415
v -0.377638 1.03941 -0.23625
vt 0.466208 1.00047
vn -0.559333 0.66636 -0.493063
f 49/235/147 48/236/150 50/237/151

vt 0.46582 1
vt 0.13037 9.95454e-014
vn -0.060545 0.323906 -0.94415
v -0.944931 0.283653 -0.567053
vt 0.46387 1.15588e-013
vn -0.885498 0.353636 -0.301387
f 50/238/151 48/239/152 51/240/153

usemtl M_27626C73_c
vt 0.513669 0.999949
vt 0.180179 0.999956
vn -0.060545 0.323906 -0.94415
v -0.944906 7.5896e-005 -0.567148
vt 0.513669 -4.53591e-005
vn -0.714834 -0.352162 -0.604147
f 51/241/153 48/242/154 52/243/155

vt 0.180179 0.999956
vn -0.060545 0.323906 -0.94415
vt 0.180179 -4.39334e-005
vt 0.513669 -4.53591e-005
f 48/244/156 47/245/144 52/246/155

usemtl Material3
vt 2.00122 0.000708097
vt 1.00168 -0.499356
v -0.944667 0.00011537 0.566697
vt 2.0007 1.00114
vn -0.756136 -0.601438 0.257935
f 52/247/155 47/248/141 53/249/157

vt 2.0007 1.00114
vt 1.00168 -0.499356
vn 4.09657e-005 -0.919069 -0.394097
v 1.50131e-005 0.000125078 1.13386
vt 1.00116 1.50162
vn -0.000169969 -0.503439 0.864031
f 53/250/157 47/251/158 54/252/159

vt 1.00116 1.50162
vt 1.00168 -0.499356
vn 4.09657e-005 -0.919069 -0.394097
vt 0.00160797 1.00156
f 54/253/159 47/254/160 46/255/138

usemtl M_27626C73_c
vt -0.48633 1.00002
vn 0.859176 0.307821 0.408733
vt -0.81982 2.24564e-005
vn -0.000169969 -0.503439 0.864031
vt -0.48633 2.1608e-005
f 42/256/161 54/257/162 46/258/138

v 0.000124168 0.283483 1.13366
vt -0.81982 1.00002
vn 0.0835283 0.445615 0.89132
vt -0.81982 2.24564e-005
vt -0.48633 1.00002
f 55/259/163 54/260/162 42/261/133

v -0.944691 0.283694 0.56679
vt 0.847312 1.00838
vn -0.706474 0.356968 0.611121
vt 1.18032 0.00813528
vn -0.000169969 -0.503439 0.864031
vt 1.18031 1.00736
vn 0.0835283 0.445615 0.89132
f 56/262/164 54/263/165 55/264/166

vt 0.847312 1.00838
vn -0.706474 0.356968 0.611121
vt 0.847307 0.00838034
vn -0.756136 -0.601438 0.257935
vt 1.18032 0.00813594
f 56/265/167 53/266/168 54/267/162

vt 0.847169 1.00004
vn -0.706474 0.356968 0.611121
vt 0.51367 1.00004
vn -0.885498 0.353636 -0.301387
vt 0.847169 4.20693e-005
vn -0.756136 -0.601438 0.257935
f 56/268/169 51/269/170 53/270/171

usemtl M_69894DA4_c
vt 0.79736 -4.35207e-014
v -0.377698 1.03946 0.236223
vt 0.79883 1
vn -0.712949 0.650049 0.262946
vt 0.46387 -3.38618e-014
f 56/271/164 57/272/172 51/273/153

vt 0.79883 1
vt 0.79736 1.90514e-013
v 0.000128795 1.03943 0.425251
vt 1.1294 1
vn -0.148981 0.658962 0.737274
f 57/274/172 56/275/164 58/276/173

vt 1.1294 0.999994
vt 0.79736 -6.02573e-006
vn -0.706474 0.356968 0.611121
vt 1.13037 -6.07894e-006
f 58/277/173 56/278/174 55/279/166

vt 1.12936 1
vt 1.13033 3.14902e-007
v 0.378308 1.03938 0.236006
vt 1.46139 1
vn 0.559718 0.66601 0.493098
f 58/280/173 55/281/166 59/282/175

vt 1.46143 1
vt 1.13037 -3.41949e-014
vn 0.0835283 0.445615 0.89132
vt 1.46387 -1.07692e-014
f 59/283/175 55/284/176 42/285/133

vt -0.53613 -1.30368e-013
vt -0.2041 1
vt -0.53857 1
vn 0.559718 0.66601 0.493098
f 42/286/133 44/287/135 59/288/177

vt 0.79883 1
vn -0.712949 0.650049 0.262946
vt 0.46582 1
vn -0.559333 0.66636 -0.493063
vt 0.46387 4.55413e-013
vn -0.885498 0.353636 -0.301387
f 57/289/178 50/290/179 51/291/180

usemtl M_27626C73_c
vt 0.847169 4.20693e-005
vt 0.51367 1.00004
vn -0.885498 0.353636 -0.301387
vt 0.513669 4.37876e-005
f 53/292/157 51/293/181 52/294/155

